<svg width="55" height="55" viewBox="0 0 55 55" fill="none" xmlns="http://www.w3.org/2000/svg">
<circle cx="27.5" cy="27.5" r="27.5" fill="#FFBF30"/>
<mask id="mask0_269_846" style="mask-type:alpha" maskUnits="userSpaceOnUse" x="0" y="0" width="55" height="55">
<circle cx="27.5" cy="27.5" r="27.5" fill="#D9D9D9"/>
</mask>
<g mask="url(#mask0_269_846)">
<rect x="11.5" y="12.5" width="37" height="43" rx="2.5" fill="white" stroke="#EAEAEA"/>
<rect x="22" y="15.5" width="16" height="2" rx="1" fill="#EBEBEB"/>
<rect x="22" y="18.5" width="9" height="2" rx="1" fill="#EBEBEB"/>
<rect x="15" y="23.5" width="30" height="16" rx="1" fill="#EBEBEB"/>
<rect x="15" y="43.5" width="30" height="3" rx="1.5" fill="#FFBF30"/>
<circle cx="17.5" cy="18" r="2.5" fill="#EBEBEB"/>
<g clip-path="url(#clip0_269_846)">
<mask id="path-9-outside-1_269_846" maskUnits="userSpaceOnUse" x="1.31494" y="10.6579" width="22" height="23" fill="black">
<rect fill="white" x="1.31494" y="10.6579" width="22" height="23"/>
<path fill-rule="evenodd" clip-rule="evenodd" d="M12.4538 12.6579C13.7719 12.6579 14.9662 13.1662 15.8212 14.0894C16.6868 15.0239 17.1086 16.2819 17.0088 17.6308C16.8107 20.3158 14.7706 22.4999 12.4538 22.4999C10.137 22.4999 8.09342 20.3154 7.89834 17.6299C7.79992 16.2687 8.21909 15.0081 9.07939 14.0806C9.93046 13.1632 11.1286 12.6579 12.4538 12.6579ZM4.7212 32.342H20.1873C20.3897 32.3446 20.5902 32.302 20.7742 32.2173C20.9581 32.1326 21.1209 32.008 21.2506 31.8525C21.5362 31.5111 21.6513 31.0449 21.566 30.5735C21.1952 28.5163 20.0379 26.7883 18.2189 25.5756C16.6028 24.4991 14.5558 23.9059 12.4542 23.9059C10.3527 23.9059 8.30564 24.4987 6.68961 25.5756C4.87059 26.7887 3.71327 28.5168 3.34243 30.5739C3.25719 31.0454 3.37231 31.5116 3.65791 31.853C3.78766 32.0084 3.95042 32.1329 4.13435 32.2175C4.31828 32.3021 4.51876 32.3446 4.7212 32.342Z"/>
</mask>
<g filter="url(#filter0_ii_269_846)">
<path fill-rule="evenodd" clip-rule="evenodd" d="M12.4538 12.6579C13.7719 12.6579 14.9662 13.1662 15.8212 14.0894C16.6868 15.0239 17.1086 16.2819 17.0088 17.6308C16.8107 20.3158 14.7706 22.4999 12.4538 22.4999C10.137 22.4999 8.09342 20.3154 7.89834 17.6299C7.79992 16.2687 8.21909 15.0081 9.07939 14.0806C9.93046 13.1632 11.1286 12.6579 12.4538 12.6579ZM4.7212 32.342H20.1873C20.3897 32.3446 20.5902 32.302 20.7742 32.2173C20.9581 32.1326 21.1209 32.008 21.2506 31.8525C21.5362 31.5111 21.6513 31.0449 21.566 30.5735C21.1952 28.5163 20.0379 26.7883 18.2189 25.5756C16.6028 24.4991 14.5558 23.9059 12.4542 23.9059C10.3527 23.9059 8.30564 24.4987 6.68961 25.5756C4.87059 26.7887 3.71327 28.5168 3.34243 30.5739C3.25719 31.0454 3.37231 31.5116 3.65791 31.853C3.78766 32.0084 3.95042 32.1329 4.13435 32.2175C4.31828 32.3021 4.51876 32.3446 4.7212 32.342Z" fill="#1B9DF0"/>
</g>
<path d="M15.8212 14.0894L16.5857 13.3813L16.5857 13.3812L15.8212 14.0894ZM17.0088 17.6308L15.9696 17.5539L15.9695 17.5541L17.0088 17.6308ZM7.89834 17.6299L6.85895 17.705L6.85897 17.7054L7.89834 17.6299ZM9.07939 14.0806L8.3154 13.3719L8.31534 13.3719L9.07939 14.0806ZM20.1873 32.342L20.2006 31.2999H20.1873V32.342ZM4.7212 32.342V31.2998L4.70764 31.3L4.7212 32.342ZM20.7742 32.2173L20.3384 31.2707H20.3384L20.7742 32.2173ZM21.2506 31.8525L20.4513 31.1839L20.4503 31.185L21.2506 31.8525ZM21.566 30.5735L20.5405 30.7584L20.5406 30.7589L21.566 30.5735ZM18.2189 25.5756L18.7969 24.7085L18.7966 24.7083L18.2189 25.5756ZM6.68961 25.5756L6.11172 24.7084L6.11141 24.7086L6.68961 25.5756ZM3.34243 30.5739L4.36791 30.7593L4.36801 30.7588L3.34243 30.5739ZM3.65791 31.853L4.45787 31.1851L4.45721 31.1843L3.65791 31.853ZM4.13435 32.2175L3.69891 33.1643L3.69892 33.1643L4.13435 32.2175ZM16.5857 13.3812C15.5235 12.2345 14.0472 11.6158 12.4538 11.6158V13.7C13.4967 13.7 14.4088 14.098 15.0566 14.7975L16.5857 13.3812ZM18.0481 17.7076C18.1677 16.0903 17.6611 14.5423 16.5857 13.3813L15.0566 14.7975C15.7124 15.5055 16.0495 16.4734 15.9696 17.5539L18.0481 17.7076ZM12.4538 23.542C15.4448 23.542 17.82 20.7987 18.0481 17.7075L15.9695 17.5541C15.8014 19.8329 14.0965 21.4578 12.4538 21.4578V23.542ZM6.85897 17.7054C7.08371 20.7991 9.46368 23.542 12.4538 23.542V21.4578C10.8103 21.4578 9.10314 19.8316 8.93771 17.5544L6.85897 17.7054ZM8.31534 13.3719C7.24176 14.5294 6.74155 16.0813 6.85895 17.705L8.93773 17.5547C8.85829 16.4561 9.19641 15.4868 9.84343 14.7893L8.31534 13.3719ZM12.4538 11.6158C10.8578 11.6158 9.3763 12.2283 8.3154 13.3719L9.84337 14.7893C10.4846 14.0981 11.3995 13.7 12.4538 13.7V11.6158ZM20.1873 31.2999H4.7212V33.3841H20.1873V31.2999ZM20.3384 31.2707C20.2952 31.2906 20.2481 31.3006 20.2006 31.3L20.174 33.384C20.5314 33.3886 20.8853 33.3134 21.2099 33.1639L20.3384 31.2707ZM20.4503 31.185C20.4199 31.2215 20.3816 31.2508 20.3384 31.2707L21.2099 33.1639C21.5346 33.0145 21.8219 32.7945 22.0508 32.5201L20.4503 31.185ZM20.5406 30.7589C20.5755 30.9523 20.5221 31.0992 20.4513 31.1839L22.0499 32.5212C22.5502 31.9231 22.727 31.1376 22.5915 30.3881L20.5406 30.7589ZM17.6408 26.4427C19.2363 27.5063 20.2224 28.994 20.5405 30.7584L22.5916 30.3886C22.168 28.0387 20.8395 26.0702 18.7969 24.7085L17.6408 26.4427ZM12.4542 24.9481C14.3677 24.9481 16.2103 25.4898 17.6411 26.4429L18.7966 24.7083C16.9954 23.5085 14.7438 22.8638 12.4542 22.8638V24.9481ZM7.2675 26.4428C8.69816 25.4894 10.5406 24.9481 12.4542 24.9481V22.8638C10.1648 22.8638 7.91311 23.5079 6.11172 24.7084L7.2675 26.4428ZM4.36801 30.7588C4.68606 28.9945 5.67222 27.5067 7.26781 26.4426L6.11141 24.7086C4.06896 26.0707 2.74048 28.0391 2.31686 30.3891L4.36801 30.7588ZM4.45721 31.1843C4.38634 31.0996 4.33294 30.9528 4.36791 30.7593L2.31695 30.3885C2.18145 31.138 2.35828 31.9235 2.85861 32.5216L4.45721 31.1843ZM4.56979 31.2707C4.52658 31.2509 4.48835 31.2216 4.45787 31.1851L2.85794 32.5208C3.08697 32.7951 3.37426 33.015 3.69891 33.1643L4.56979 31.2707ZM4.70764 31.3C4.66009 31.3006 4.613 31.2906 4.56978 31.2707L3.69892 33.1643C4.02357 33.3136 4.37743 33.3887 4.73476 33.384L4.70764 31.3Z" fill="#FFBF30" mask="url(#path-9-outside-1_269_846)"/>
</g>
</g>
<defs>
<filter id="filter0_ii_269_846" x="-0.911705" y="10.5542" width="23.5472" height="22.83" filterUnits="userSpaceOnUse" color-interpolation-filters="sRGB">
<feFlood flood-opacity="0" result="BackgroundImageFix"/>
<feBlend mode="normal" in="SourceGraphic" in2="BackgroundImageFix" result="shape"/>
<feColorMatrix in="SourceAlpha" type="matrix" values="0 0 0 0 0 0 0 0 0 0 0 0 0 0 0 0 0 0 127 0" result="hardAlpha"/>
<feOffset/>
<feGaussianBlur stdDeviation="4.24621"/>
<feComposite in2="hardAlpha" operator="arithmetic" k2="-1" k3="1"/>
<feColorMatrix type="matrix" values="0 0 0 0 0 0 0 0 0 0 0 0 0 0 0 0 0 0 0.48 0"/>
<feBlend mode="normal" in2="shape" result="effect1_innerShadow_269_846"/>
<feColorMatrix in="SourceAlpha" type="matrix" values="0 0 0 0 0 0 0 0 0 0 0 0 0 0 0 0 0 0 127 0" result="hardAlpha"/>
<feOffset dx="-3.18465" dy="-1.06155"/>
<feGaussianBlur stdDeviation="2.1231"/>
<feComposite in2="hardAlpha" operator="arithmetic" k2="-1" k3="1"/>
<feColorMatrix type="matrix" values="0 0 0 0 0 0 0 0 0 0 0 0 0 0 0 0 0 0 0.41 0"/>
<feBlend mode="normal" in2="effect1_innerShadow_269_846" result="effect2_innerShadow_269_846"/>
</filter>
<clipPath id="clip0_269_846">
<rect width="22" height="22" fill="white" transform="translate(1 11.5)"/>
</clipPath>
</defs>
</svg>
