<svg width="30" height="30" viewBox="0 0 30 30" fill="none" xmlns="http://www.w3.org/2000/svg">
<path d="M15 9.37501C15.9375 5.67423 19.4783 3.78458 27.1875 3.75001C27.3108 3.74954 27.4329 3.77347 27.5468 3.82042C27.6608 3.86737 27.7643 3.93641 27.8515 4.02356C27.9386 4.11071 28.0076 4.21424 28.0546 4.32819C28.1015 4.44214 28.1255 4.56426 28.125 4.68751V21.5625C28.125 21.8111 28.0262 22.0496 27.8504 22.2254C27.6746 22.4012 27.4361 22.5 27.1875 22.5C19.6875 22.5 16.79 24.0123 15 26.25C13.2205 24.0234 10.3125 22.5 2.81251 22.5C2.2336 22.5 1.87501 22.0283 1.87501 21.4494V4.68751C1.87454 4.56426 1.89847 4.44214 1.94542 4.32819C1.99237 4.21424 2.06141 4.11071 2.14856 4.02356C2.23571 3.93641 2.33924 3.86737 2.45319 3.82042C2.56714 3.77347 2.68926 3.74954 2.81251 3.75001C10.5217 3.78458 14.0625 5.67423 15 9.37501Z" stroke="black" stroke-width="1.875" stroke-linecap="round" stroke-linejoin="round"/>
<path d="M15 9.375V26.25" stroke="black" stroke-width="1.875" stroke-linecap="round" stroke-linejoin="round"/>
</svg>
