<svg width="55" height="55" viewBox="0 0 55 55" fill="none" xmlns="http://www.w3.org/2000/svg">
<circle cx="27.5" cy="27.5" r="27.5" fill="#FFBF30"/>
<mask id="mask0_269_43" style="mask-type:alpha" maskUnits="userSpaceOnUse" x="0" y="0" width="55" height="55">
<circle cx="27.5" cy="27.5" r="27.5" fill="#D9D9D9"/>
</mask>
<g mask="url(#mask0_269_43)">
<rect x="11.5" y="12.5" width="37" height="43" rx="2.5" fill="white" stroke="#EAEAEA"/>
<rect x="22" y="15.5" width="16" height="2" rx="1" fill="#EBEBEB"/>
<rect x="22" y="18.5" width="9" height="2" rx="1" fill="#EBEBEB"/>
<rect x="15" y="23.5" width="30" height="16" rx="1" fill="#EBEBEB"/>
<rect x="15" y="43.5" width="30" height="3" rx="1.5" fill="#FFBF30"/>
<circle cx="17.5" cy="18" r="2.5" fill="#EBEBEB"/>
<g filter="url(#filter0_ii_269_43)">
<path d="M24.5848 15.7846C24.5752 15.6309 24.5143 15.4849 24.4118 15.37C24.3094 15.2551 24.1713 15.1779 24.0198 15.1508C20.3231 14.4882 18.7677 13.97 15.4294 12.4678C15.096 12.3436 14.8893 12.3458 14.5701 12.4678C11.2318 13.9717 9.67635 14.4873 5.97975 15.1508C5.8282 15.1779 5.69015 15.2551 5.5877 15.37C5.48525 15.4849 5.42433 15.6309 5.41471 15.7846C5.24928 18.4099 5.6012 20.8549 6.46143 23.0527C7.16484 24.8449 8.20691 26.4848 9.53069 27.8828C11.4501 29.9208 13.5783 31.1107 14.6758 31.561C14.8839 31.6459 15.1169 31.6459 15.325 31.561C16.4852 31.0917 18.5344 29.9359 20.4688 27.882C21.7925 26.4842 22.8346 24.8446 23.5381 23.0527C24.3983 20.8553 24.7502 18.4099 24.5848 15.7846Z" fill="#1B9DF0"/>
</g>
<path d="M15.6275 11.9855L15.6433 11.9926C18.9461 13.4789 20.4608 13.9835 24.1115 14.6379C24.1116 14.6379 24.1116 14.6379 24.1117 14.6379L24.0198 15.1508C24.1713 15.1779 24.3094 15.2551 24.4118 15.37C24.5143 15.4849 24.5752 15.6309 24.5848 15.7846L15.6275 11.9855ZM15.6275 11.9855L15.6113 11.9795M15.6275 11.9855L15.6113 11.9795M15.6113 11.9795C15.4114 11.9051 15.2114 11.854 14.9934 11.8544C14.7746 11.8549 14.5775 11.9071 14.384 11.9811L14.3699 11.9865M15.6113 11.9795L14.3699 11.9865M14.3699 11.9865L14.356 11.9927M14.3699 11.9865L14.356 11.9927M14.356 11.9927C11.0536 13.4805 9.53897 13.9826 5.88796 14.6379M14.356 11.9927L5.88796 14.6379M5.88796 14.6379C5.62155 14.6855 5.37886 14.8213 5.19877 15.0233L5.58442 15.3671M5.88796 14.6379L5.97975 15.1508M5.88796 14.6379C5.88787 14.6379 5.88779 14.6379 5.88771 14.6379L5.97975 15.1508M5.88796 14.6379L5.58442 15.3671M5.58442 15.3671L5.19877 15.0233C5.01872 15.2252 4.91164 15.4818 4.89469 15.7518L5.41471 15.7846C5.42433 15.6309 5.48525 15.4849 5.5877 15.37C5.69015 15.2551 5.8282 15.1779 5.97975 15.1508M5.58442 15.3671L14.5701 12.4678C11.2318 13.9717 9.67635 14.4873 5.97975 15.1508M24.0233 23.2427C24.9143 20.9667 25.2744 18.4444 25.1048 15.752L4.89468 15.752C4.72505 18.4444 5.08526 20.9663 5.97622 23.2426L5.9764 23.2431C6.70415 25.0973 7.78224 26.794 9.15175 28.2405C11.1279 30.3386 13.3204 31.568 14.478 32.043L14.4789 32.0434C14.8127 32.1796 15.1865 32.1798 15.5204 32.044C16.7447 31.5488 18.8579 30.3521 20.8476 28.2397C22.2171 26.7935 23.2952 25.0971 24.0231 23.2431L24.0233 23.2427Z" stroke="#FFBF30" stroke-width="1.04211"/>
</g>
<defs>
<filter id="filter0_ii_269_43" x="1.14835" y="10.2718" width="24.5182" height="22.3949" filterUnits="userSpaceOnUse" color-interpolation-filters="sRGB">
<feFlood flood-opacity="0" result="BackgroundImageFix"/>
<feBlend mode="normal" in="SourceGraphic" in2="BackgroundImageFix" result="shape"/>
<feColorMatrix in="SourceAlpha" type="matrix" values="0 0 0 0 0 0 0 0 0 0 0 0 0 0 0 0 0 0 127 0" result="hardAlpha"/>
<feOffset/>
<feGaussianBlur stdDeviation="4.24621"/>
<feComposite in2="hardAlpha" operator="arithmetic" k2="-1" k3="1"/>
<feColorMatrix type="matrix" values="0 0 0 0 0 0 0 0 0 0 0 0 0 0 0 0 0 0 0.48 0"/>
<feBlend mode="normal" in2="shape" result="effect1_innerShadow_269_43"/>
<feColorMatrix in="SourceAlpha" type="matrix" values="0 0 0 0 0 0 0 0 0 0 0 0 0 0 0 0 0 0 127 0" result="hardAlpha"/>
<feOffset dx="-3.18465" dy="-1.06155"/>
<feGaussianBlur stdDeviation="2.1231"/>
<feComposite in2="hardAlpha" operator="arithmetic" k2="-1" k3="1"/>
<feColorMatrix type="matrix" values="0 0 0 0 0 0 0 0 0 0 0 0 0 0 0 0 0 0 0.41 0"/>
<feBlend mode="normal" in2="effect1_innerShadow_269_43" result="effect2_innerShadow_269_43"/>
</filter>
</defs>
</svg>
