<svg width="18" height="18" viewBox="0 0 18 18" fill="none" xmlns="http://www.w3.org/2000/svg">
<path d="M3.86637 5.90625C3.96938 7.33605 5.03004 8.4375 6.18668 8.4375C7.34332 8.4375 8.40574 7.33641 8.50699 5.90625C8.61246 4.41879 7.57992 3.375 6.18668 3.375C4.79344 3.375 3.7609 4.44586 3.86637 5.90625Z" stroke="black" stroke-width="1.125" stroke-linecap="round" stroke-linejoin="round"/>
<path d="M6.18764 10.6875C8.47877 10.6875 10.682 11.8255 11.234 14.0418C11.3071 14.335 11.1232 14.625 10.8219 14.625H1.55299C1.2517 14.625 1.06889 14.335 1.14096 14.0418C1.69291 11.79 3.89616 10.6875 6.18764 10.6875Z" stroke="black" stroke-width="1.125" stroke-miterlimit="10"/>
<path d="M10.9688 6.53695C11.051 7.67883 11.9082 8.57812 12.8321 8.57812C13.756 8.57812 14.6145 7.67918 14.6953 6.53695C14.7794 5.34902 13.9451 4.5 12.8321 4.5C11.719 4.5 10.8848 5.37082 10.9688 6.53695Z" stroke="black" stroke-width="1.125" stroke-linecap="round" stroke-linejoin="round"/>
<path d="M10.7575 10.7578C11.392 10.467 12.0909 10.3552 12.8317 10.3552C14.6598 10.3552 16.4211 11.264 16.8624 13.0341C16.9204 13.2683 16.7734 13.5 16.5329 13.5H12.5856" stroke="black" stroke-width="1.125" stroke-miterlimit="10" stroke-linecap="round"/>
</svg>
