<svg width="18" height="18" viewBox="0 0 18 18" fill="none" xmlns="http://www.w3.org/2000/svg">
<path d="M14.625 2.25H3.375C2.44302 2.25 1.6875 3.00552 1.6875 3.9375V14.0625C1.6875 14.9945 2.44302 15.75 3.375 15.75H14.625C15.557 15.75 16.3125 14.9945 16.3125 14.0625V3.9375C16.3125 3.00552 15.557 2.25 14.625 2.25Z" stroke="black" stroke-width="1.125" stroke-linejoin="round"/>
<path d="M13.9859 2.25H4.01414C2.73129 2.25 1.6875 3.30996 1.6875 4.6125V6.1875H2.25C2.25 5.625 2.8125 5.0625 3.375 5.0625H14.625C15.1875 5.0625 15.75 5.625 15.75 6.1875H16.3125V4.6125C16.3125 3.30996 15.2687 2.25 13.9859 2.25Z" fill="black"/>
</svg>
