<svg width="45" height="45" viewBox="0 0 45 45" fill="none" xmlns="http://www.w3.org/2000/svg">
<rect x="0.848736" y="0.848736" width="34.7373" height="40.4764" rx="2.06431" fill="white" stroke="#EBEBEB" stroke-width="0.302528"/>
<rect x="2.91309" y="2.91309" width="30.6087" height="19.1304" rx="0.956522" fill="url(#paint0_linear_346_4129)"/>
<rect x="2.91309" y="25.8696" width="15.3043" height="1.91304" rx="0.956522" fill="#EBEBEB"/>
<rect x="2.91309" y="30.6523" width="26.7826" height="1.91304" rx="0.956522" fill="#EBEBEB"/>
<rect x="2.91309" y="35.4348" width="22.9565" height="1.91304" rx="0.956522" fill="#EBEBEB"/>
<g clip-path="url(#clip0_346_4129)">
<path d="M16.4246 9.9675V8.89141C16.4246 8.79628 16.4624 8.70504 16.5297 8.63777C16.597 8.57051 16.6882 8.53271 16.7833 8.53271C16.8785 8.53271 16.9697 8.57051 17.037 8.63777C17.1042 8.70504 17.142 8.79628 17.142 8.89141V9.9675C17.142 10.0626 17.1042 10.1539 17.037 10.2211C16.9697 10.2884 16.8785 10.3262 16.7833 10.3262C16.6882 10.3262 16.597 10.2884 16.5297 10.2211C16.4624 10.1539 16.4246 10.0626 16.4246 9.9675ZM19.6529 14.6305C19.5578 14.6305 19.4665 14.6683 19.3993 14.7356C19.332 14.8029 19.2942 14.8941 19.2942 14.9892V16.0653C19.2942 16.1605 19.332 16.2517 19.3993 16.319C19.4665 16.3862 19.5578 16.424 19.6529 16.424C19.748 16.424 19.8393 16.3862 19.9065 16.319C19.9738 16.2517 20.0116 16.1605 20.0116 16.0653V14.9892C20.0116 14.8941 19.9738 14.8029 19.9065 14.7356C19.8393 14.6683 19.748 14.6305 19.6529 14.6305ZM14.6312 11.4023H15.7072C15.8024 11.4023 15.8936 11.3645 15.9609 11.2972C16.0281 11.23 16.0659 11.1387 16.0659 11.0436C16.0659 10.9485 16.0281 10.8572 15.9609 10.7899C15.8936 10.7227 15.8024 10.6849 15.7072 10.6849H14.6312C14.536 10.6849 14.4448 10.7227 14.3775 10.7899C14.3103 10.8572 14.2725 10.9485 14.2725 11.0436C14.2725 11.1387 14.3103 11.23 14.3775 11.2972C14.4448 11.3645 14.536 11.4023 14.6312 11.4023ZM21.8051 13.5545H20.729C20.6339 13.5545 20.5426 13.5922 20.4753 13.6595C20.4081 13.7268 20.3703 13.818 20.3703 13.9131C20.3703 14.0083 20.4081 14.0995 20.4753 14.1668C20.5426 14.2341 20.6339 14.2718 20.729 14.2718H21.8051C21.9002 14.2718 21.9914 14.2341 22.0587 14.1668C22.126 14.0995 22.1638 14.0083 22.1638 13.9131C22.1638 13.818 22.126 13.7268 22.0587 13.6595C21.9914 13.5922 21.9002 13.5545 21.8051 13.5545ZM17.9446 14.7785L17.4379 15.2852C17.165 15.5325 16.8074 15.6653 16.4392 15.6563C16.0711 15.6472 15.7204 15.4969 15.46 15.2365C15.1996 14.976 15.0493 14.6254 15.0402 14.2572C15.0311 13.889 15.164 13.5315 15.4113 13.2585L15.918 12.7519C15.9853 12.6839 16.0231 12.592 16.0231 12.4963C16.0231 12.4006 15.9853 12.3087 15.918 12.2407C15.8507 12.1737 15.7596 12.136 15.6646 12.136C15.5697 12.136 15.4786 12.1737 15.4113 12.2407L14.9047 12.7519C14.5015 13.155 14.2751 13.7017 14.2751 14.2718C14.2751 14.8419 14.5015 15.3887 14.9047 15.7918C15.3078 16.1949 15.8545 16.4214 16.4246 16.4214C16.9947 16.4214 17.5415 16.1949 17.9446 15.7918L18.4557 15.2852C18.5228 15.2179 18.5605 15.1268 18.5605 15.0318C18.5605 14.9368 18.5228 14.8457 18.4557 14.7785C18.3877 14.7111 18.2959 14.6734 18.2002 14.6734C18.1045 14.6734 18.0126 14.7111 17.9446 14.7785ZM21.0249 9.67157C21.1583 9.80446 21.2642 9.96238 21.3364 10.1363C21.4086 10.3102 21.4458 10.4966 21.4458 10.6849C21.4458 10.8732 21.4086 11.0596 21.3364 11.2335C21.2642 11.4074 21.1583 11.5653 21.0249 11.6982L20.5182 12.2049C20.4509 12.2729 20.4131 12.3647 20.4131 12.4604C20.4131 12.5561 20.4509 12.648 20.5182 12.716C20.5871 12.7818 20.6786 12.8187 20.7738 12.8191C20.8678 12.819 20.958 12.7819 21.0249 12.716L21.5316 12.2049C21.9347 11.8017 22.1612 11.255 22.1612 10.6849C22.1612 10.1148 21.9347 9.56804 21.5316 9.16492C21.1284 8.76179 20.5817 8.53532 20.0116 8.53532C19.4415 8.53532 18.8947 8.76179 18.4916 9.16492L17.9805 9.67157C17.9134 9.73882 17.8757 9.82992 17.8757 9.9249C17.8757 10.0199 17.9134 10.111 17.9805 10.1782C18.0485 10.2456 18.1403 10.2834 18.236 10.2834C18.3318 10.2834 18.4236 10.2456 18.4916 10.1782L18.9983 9.67157C19.1312 9.53818 19.2891 9.43233 19.463 9.36011C19.6369 9.28788 19.8233 9.2507 20.0116 9.2507C20.1999 9.2507 20.3863 9.28788 20.5602 9.36011C20.7341 9.43233 20.892 9.53818 21.0249 9.67157Z" fill="white"/>
</g>
<g clip-path="url(#clip1_346_4129)">
<mask id="path-7-outside-1_346_4129" maskUnits="userSpaceOnUse" x="20.585" y="20.5818" width="21" height="21" fill="black">
<rect fill="white" x="20.585" y="20.5818" width="21" height="21"/>
<path fill-rule="evenodd" clip-rule="evenodd" d="M38.7229 23.5569C38.7451 23.302 38.6587 23.0395 38.4636 22.8444C38.2881 22.6689 38.0579 22.5814 37.8278 22.5818C37.8273 22.5818 37.8267 22.5818 37.8261 22.5818H26.1685C25.6733 22.5818 25.2718 22.9833 25.2718 23.4785C25.2718 23.9738 25.6733 24.3753 26.1685 24.3753H35.6646L22.8476 37.1923C22.4974 37.5425 22.4974 38.1102 22.8476 38.4604C23.1978 38.8106 23.7656 38.8106 24.1158 38.4604L36.9294 25.6469V35.1361C36.9294 35.6314 37.3309 36.0329 37.8261 36.0329C38.3214 36.0329 38.7229 35.6314 38.7229 35.1361V23.5569Z"/>
</mask>
<path fill-rule="evenodd" clip-rule="evenodd" d="M38.7229 23.5569C38.7451 23.302 38.6587 23.0395 38.4636 22.8444C38.2881 22.6689 38.0579 22.5814 37.8278 22.5818C37.8273 22.5818 37.8267 22.5818 37.8261 22.5818H26.1685C25.6733 22.5818 25.2718 22.9833 25.2718 23.4785C25.2718 23.9738 25.6733 24.3753 26.1685 24.3753H35.6646L22.8476 37.1923C22.4974 37.5425 22.4974 38.1102 22.8476 38.4604C23.1978 38.8106 23.7656 38.8106 24.1158 38.4604L36.9294 25.6469V35.1361C36.9294 35.6314 37.3309 36.0329 37.8261 36.0329C38.3214 36.0329 38.7229 35.6314 38.7229 35.1361V23.5569Z" fill="#121212"/>
<path d="M38.4636 22.8444L37.1109 24.1972L37.1109 24.1972L38.4636 22.8444ZM38.7229 23.5569L36.817 23.3907C36.8122 23.446 36.8098 23.5014 36.8098 23.5569H38.7229ZM37.8278 22.5818L37.8243 24.4948L37.8314 24.4948L37.8278 22.5818ZM35.6646 24.3753L37.0173 25.728C37.5645 25.1809 37.7281 24.358 37.432 23.6432C37.1359 22.9283 36.4384 22.4622 35.6646 22.4622V24.3753ZM22.8476 37.1923L21.4949 35.8395H21.4949L22.8476 37.1923ZM22.8476 38.4604L24.2003 37.1077H24.2003L22.8476 38.4604ZM24.1158 38.4604L22.7631 37.1077H22.7631L24.1158 38.4604ZM36.9294 25.6469H38.8424C38.8424 24.8731 38.3763 24.1755 37.6615 23.8794C36.9466 23.5833 36.1238 23.747 35.5767 24.2941L36.9294 25.6469ZM37.1109 24.1972C36.8894 23.9757 36.7923 23.6749 36.817 23.3907L40.6287 23.7231C40.6979 22.9292 40.4279 22.1033 39.8163 21.4917L37.1109 24.1972ZM37.8314 24.4948C37.5737 24.4953 37.3095 24.3957 37.1109 24.1972L39.8163 21.4917C39.2667 20.9421 38.5421 20.6674 37.8242 20.6687L37.8314 24.4948ZM37.8261 24.4948C37.8255 24.4948 37.8249 24.4948 37.8243 24.4948L37.8314 20.6687C37.8296 20.6687 37.8279 20.6687 37.8261 20.6687V24.4948ZM26.1685 24.4948H37.8261V20.6687H26.1685V24.4948ZM27.1848 23.4785C27.1848 24.0398 26.7298 24.4948 26.1685 24.4948V20.6687C24.6167 20.6687 23.3587 21.9267 23.3587 23.4785H27.1848ZM26.1685 22.4622C26.7298 22.4622 27.1848 22.9172 27.1848 23.4785H23.3587C23.3587 25.0303 24.6167 26.2883 26.1685 26.2883V22.4622ZM35.6646 22.4622H26.1685V26.2883H35.6646V22.4622ZM24.2003 38.545L37.0173 25.728L34.3119 23.0225L21.4949 35.8395L24.2003 38.545ZM24.2003 37.1077C24.5972 37.5046 24.5972 38.1481 24.2003 38.545L21.4949 35.8395C20.3976 36.9368 20.3976 38.7159 21.4949 39.8132L24.2003 37.1077ZM22.7631 37.1077C23.16 36.7108 23.8034 36.7108 24.2003 37.1077L21.4949 39.8132C22.5922 40.9105 24.3712 40.9105 25.4685 39.8132L22.7631 37.1077ZM35.5767 24.2941L22.7631 37.1077L25.4685 39.8132L38.2821 26.9996L35.5767 24.2941ZM38.8424 35.1361V25.6469H35.0163V35.1361H38.8424ZM37.8261 34.1198C38.3874 34.1198 38.8424 34.5748 38.8424 35.1361H35.0163C35.0163 36.6879 36.2743 37.9459 37.8261 37.9459V34.1198ZM36.8098 35.1361C36.8098 34.5748 37.2648 34.1198 37.8261 34.1198V37.9459C39.3779 37.9459 40.6359 36.6879 40.6359 35.1361H36.8098ZM36.8098 23.5569V35.1361H40.6359V23.5569H36.8098Z" fill="white" mask="url(#path-7-outside-1_346_4129)"/>
</g>
<defs>
<linearGradient id="paint0_linear_346_4129" x1="2.91309" y1="2.91309" x2="35.8966" y2="16.1065" gradientUnits="userSpaceOnUse">
<stop stop-color="#92FFCE"/>
<stop offset="0.831103" stop-color="#FCDC89"/>
</linearGradient>
<clipPath id="clip0_346_4129">
<rect width="11.4783" height="11.4783" fill="white" transform="translate(12.4775 6.7395)"/>
</clipPath>
<clipPath id="clip1_346_4129">
<rect width="28.6957" height="28.6957" fill="white" transform="translate(16.3057 16.3044)"/>
</clipPath>
</defs>
</svg>
