<svg width="18" height="18" viewBox="0 0 18 18" fill="none" xmlns="http://www.w3.org/2000/svg">
<path d="M10.6875 11.8125V13.2188C10.6875 13.5917 10.5393 13.9494 10.2756 14.2131C10.0119 14.4768 9.65421 14.625 9.28125 14.625H3.65625C3.28329 14.625 2.9256 14.4768 2.66188 14.2131C2.39816 13.9494 2.25 13.5917 2.25 13.2188V4.78125C2.25 4.40829 2.39816 4.0506 2.66188 3.78688C2.9256 3.52316 3.28329 3.375 3.65625 3.375H9C9.7766 3.375 10.6875 4.00465 10.6875 4.78125V6.1875" stroke="black" stroke-width="1.125" stroke-linecap="round" stroke-linejoin="round"/>
<path d="M12.9375 11.8125L15.75 9L12.9375 6.1875" stroke="black" stroke-width="1.125" stroke-linecap="round" stroke-linejoin="round"/>
<path d="M6.1875 9H15.1875" stroke="black" stroke-width="1.125" stroke-linecap="round" stroke-linejoin="round"/>
</svg>
