<svg width="89" height="22" viewBox="0 0 89 22" fill="none" xmlns="http://www.w3.org/2000/svg">
<mask id="mask0_167_897" style="mask-type:alpha" maskUnits="userSpaceOnUse" x="0" y="0" width="22" height="22">
<path fill-rule="evenodd" clip-rule="evenodd" d="M11 22C17.0751 22 22 17.0751 22 11C22 4.92489 17.0751 0 11 0C4.92487 0 0 4.92489 0 11C0 17.0751 4.92487 22 11 22ZM19.0954 9.85854C18.0697 11.058 16.625 11.8049 15.0243 11.8049C11.9125 11.8049 9.39004 8.98215 9.39004 5.50005C9.39004 4.62402 9.54969 3.78968 9.83825 3.03157C5.93906 3.62377 2.95114 6.99045 2.95114 11.055C2.95114 12.2409 3.2055 13.3674 3.66265 14.3829C4.12639 13.9515 4.77811 13.6831 5.49995 13.6831C6.90758 13.6831 8.04873 14.704 8.04873 15.9636C8.04873 16.8092 7.5342 17.5474 6.76994 17.9412C8.01609 18.7203 9.48897 19.171 11.067 19.171C15.5493 19.171 19.183 15.5373 19.183 11.055C19.183 10.6485 19.1529 10.249 19.0954 9.85854Z" fill="white"/>
</mask>
<g mask="url(#mask0_167_897)">
<path fill-rule="evenodd" clip-rule="evenodd" d="M11 22C17.0751 22 22 17.0751 22 11C22 4.92489 17.0751 0 11 0C4.92487 0 0 4.92489 0 11C0 17.0751 4.92487 22 11 22ZM19.0954 9.85854C18.0697 11.058 16.625 11.8049 15.0243 11.8049C11.9125 11.8049 9.39004 8.98215 9.39004 5.50005C9.39004 4.62402 9.54969 3.78968 9.83825 3.03157C5.93906 3.62377 2.95114 6.99045 2.95114 11.055C2.95114 12.2409 3.2055 13.3674 3.66265 14.3829C4.12639 13.9515 4.77811 13.6831 5.49995 13.6831C6.90758 13.6831 8.04873 14.704 8.04873 15.9636C8.04873 16.8092 7.5342 17.5474 6.76994 17.9412C8.01609 18.7203 9.48897 19.171 11.067 19.171C15.5493 19.171 19.183 15.5373 19.183 11.055C19.183 10.6485 19.1529 10.249 19.0954 9.85854Z" fill="#2176FF"/>
<path d="M19.0957 9.85847L19.8917 9.74082L19.6334 7.99125L18.4839 9.33537L19.0957 9.85847ZM9.83849 3.0315L10.5907 3.3178L11.0814 2.02861L9.71761 2.23573L9.83849 3.0315ZM3.66289 14.3829L2.92895 14.7133L3.38956 15.7365L4.21114 14.9722L3.66289 14.3829ZM6.77018 17.9411L6.40154 17.2255L5.14398 17.8734L6.34344 18.6236L6.77018 17.9411ZM21.1955 10.9999C21.1955 16.6307 16.6309 21.1952 11.0003 21.1952V22.8049C17.52 22.8049 22.8053 17.5197 22.8053 10.9999H21.1955ZM11.0003 0.804828C16.6309 0.804828 21.1955 5.36933 21.1955 10.9999H22.8053C22.8053 4.48029 17.52 -0.804932 11.0003 -0.804932V0.804828ZM0.805136 10.9999C0.805136 5.36933 5.36965 0.804828 11.0003 0.804828V-0.804932C4.48061 -0.804932 -0.804626 4.48029 -0.804626 10.9999H0.805136ZM11.0003 21.1952C5.36965 21.1952 0.805136 16.6307 0.805136 10.9999H-0.804626C-0.804626 17.5197 4.48061 22.8049 11.0003 22.8049V21.1952ZM15.0245 12.6097C16.8865 12.6097 18.5466 11.7391 19.7074 10.3816L18.4839 9.33537C17.5934 10.3767 16.3639 11 15.0245 11V12.6097ZM8.58538 5.49998C8.58538 9.33907 11.3855 12.6097 15.0245 12.6097V11C12.44 11 10.1951 8.62506 10.1951 5.49998H8.58538ZM9.08624 2.7452C8.76297 3.59459 8.58538 4.5259 8.58538 5.49998H10.1951C10.1951 4.72197 10.3369 3.98467 10.5907 3.3178L9.08624 2.7452ZM3.75627 11.0549C3.75627 7.39421 6.44754 4.36062 9.95933 3.82725L9.71761 2.23573C5.43103 2.88679 2.14651 6.58655 2.14651 11.0549H3.75627ZM4.39683 14.0525C3.98553 13.1388 3.75627 12.1247 3.75627 11.0549H2.14651C2.14651 12.357 2.42598 13.5959 2.92895 14.7133L4.39683 14.0525ZM5.50019 12.8781C4.57914 12.8781 3.73038 13.2208 3.11464 13.7936L4.21114 14.9722C4.52288 14.6822 4.97759 14.4879 5.50019 14.4879V12.8781ZM8.85383 15.9635C8.85383 14.1776 7.26584 12.8781 5.50019 12.8781V14.4879C6.54984 14.4879 7.2441 15.2305 7.2441 15.9635H8.85383ZM7.13879 18.6567C8.1295 18.1462 8.85383 17.1545 8.85383 15.9635H7.2441C7.2441 16.4639 6.93937 16.9486 6.40154 17.2255L7.13879 18.6567ZM11.0673 18.3659C9.64446 18.3659 8.31886 17.9604 7.19692 17.2587L6.34344 18.6236C7.7138 19.4804 9.33392 19.9757 11.0673 19.9757V18.3659ZM18.3783 11.0549C18.3783 15.0926 15.1049 18.3659 11.0673 18.3659V19.9757C15.9939 19.9757 19.988 15.9816 19.988 11.0549H18.3783ZM18.2994 9.97613C18.3512 10.3278 18.3783 10.6879 18.3783 11.0549H19.988C19.988 10.6089 19.9552 10.1701 19.8917 9.74082L18.2994 9.97613Z" fill="#2176FF"/>
</g>
<path d="M36.825 5.11103L36.3443 8.73376C36.1783 8.68797 36.0124 8.65649 35.8464 8.63933C35.6804 8.62216 35.5144 8.61357 35.3485 8.61357C34.925 8.61357 34.5215 8.6708 34.138 8.78526C33.7546 8.894 33.4141 9.06284 33.1165 9.29176C32.8246 9.52068 32.5899 9.80684 32.4125 10.1502C32.2408 10.4936 32.155 10.8971 32.155 11.3607C32.155 11.6583 32.2008 11.9158 32.2923 12.1333C32.3896 12.3508 32.5241 12.531 32.6958 12.6741C32.8675 12.8172 33.0707 12.9231 33.3053 12.9918C33.54 13.0604 33.7975 13.0948 34.0779 13.0948C34.2897 13.0948 34.51 13.0719 34.739 13.0261C34.9679 12.9803 35.194 12.9202 35.4172 12.8458C35.6404 12.7714 35.8578 12.6856 36.0696 12.5883C36.2813 12.491 36.4759 12.3908 36.6533 12.2878L36.31 16.3226C36.0868 16.4371 35.8435 16.5401 35.5803 16.6316C35.3227 16.7175 35.0566 16.7948 34.7819 16.8634C34.5072 16.9264 34.2325 16.975 33.9578 17.0094C33.683 17.0437 33.4198 17.0609 33.168 17.0609C32.4411 17.0609 31.7629 16.9264 31.1334 16.6574C30.5039 16.3884 29.9573 16.0193 29.4937 15.55C29.0302 15.0807 28.6639 14.5284 28.3949 13.8931C28.1316 13.2522 28 12.5625 28 11.8242C28 10.8456 28.1402 9.92416 28.4206 9.05997C28.7011 8.19006 29.1131 7.42889 29.6568 6.77645C30.2005 6.12402 30.873 5.60894 31.6742 5.23121C32.4812 4.85349 33.4083 4.66462 34.4557 4.66462C34.8506 4.66462 35.254 4.6961 35.6661 4.75906C36.0839 4.82201 36.4702 4.93933 36.825 5.11103Z" fill="black"/>
<path d="M41.8471 5.09386L41.2461 16.7862L37.6234 16.975L37.28 5.33423L41.8471 5.09386Z" fill="black"/>
<path d="M52.6122 8.90545C52.6122 9.35185 52.5722 9.75819 52.4921 10.1245C52.4177 10.485 52.2975 10.817 52.1315 11.1203C51.9655 11.4236 51.7509 11.7041 51.4876 11.9616C51.2244 12.2191 50.9067 12.4652 50.5347 12.6999L52.5779 16.3398L48.7148 17.0952L47.3928 13.4382L46.3283 13.4725L46.1737 17.0437H42.4823C42.5109 15.7388 42.5367 14.4397 42.5596 13.1463C42.5882 11.8529 42.6197 10.5537 42.654 9.24884C42.6655 8.59068 42.6769 7.93824 42.6884 7.29153C42.6998 6.64482 42.7227 5.99239 42.757 5.33423C43.1577 5.18543 43.5526 5.06238 43.9417 4.96509C44.3309 4.8678 44.7201 4.79339 45.1092 4.74189C45.5041 4.68466 45.9019 4.64746 46.3025 4.63029C46.7088 4.60739 47.1238 4.59595 47.5473 4.59595C48.1997 4.59595 48.8293 4.68752 49.4359 4.87066C50.0483 5.04807 50.5891 5.31706 51.0584 5.67762C51.5277 6.03817 51.9026 6.48744 52.183 7.02541C52.4692 7.56338 52.6122 8.19006 52.6122 8.90545ZM48.7663 9.18016C48.7663 8.93979 48.732 8.71945 48.6633 8.51914C48.6003 8.31883 48.503 8.14714 48.3714 8.00406C48.2455 7.85526 48.0853 7.7408 47.8907 7.66067C47.7018 7.57483 47.4786 7.5319 47.2211 7.5319C47.1066 7.5319 46.995 7.54049 46.8863 7.55766C46.7775 7.5691 46.6716 7.58913 46.5686 7.61775L46.4313 10.8112H46.6373C46.8834 10.8112 47.1324 10.7798 47.3842 10.7168C47.6417 10.6539 47.8706 10.5566 48.0709 10.4249C48.277 10.2933 48.443 10.1245 48.5689 9.91844C48.7005 9.71241 48.7663 9.46631 48.7663 9.18016Z" fill="black"/>
<path d="M61.2999 5.45441L60.9909 9.07714C60.8249 9.03136 60.6618 8.99988 60.5015 8.98271C60.3413 8.96554 60.1782 8.95696 60.0122 8.95696C59.6059 8.95696 59.2167 9.00847 58.8447 9.11148C58.4784 9.2145 58.1522 9.37188 57.8661 9.58364C57.5856 9.79539 57.3596 10.0644 57.1879 10.3906C57.0219 10.7111 56.9389 11.0917 56.9389 11.5324C56.9389 11.8529 56.9847 12.1333 57.0763 12.3737C57.1736 12.6083 57.308 12.8057 57.4797 12.966C57.6572 13.1205 57.8689 13.2378 58.115 13.318C58.3668 13.3981 58.6444 13.4382 58.9477 13.4382C59.1595 13.4382 59.377 13.4181 59.6002 13.3781C59.8234 13.3323 60.0466 13.2722 60.2698 13.1978C60.493 13.1234 60.7076 13.0375 60.9136 12.9402C61.1196 12.8429 61.3114 12.7399 61.4888 12.6312L61.3514 16.666C61.1282 16.7804 60.8879 16.8835 60.6303 16.975C60.3728 17.0609 60.1067 17.1353 59.8319 17.1982C59.563 17.2669 59.2911 17.3184 59.0164 17.3528C58.7474 17.3871 58.4899 17.4043 58.2438 17.4043C57.4311 17.4043 56.69 17.2526 56.0203 16.9493C55.3565 16.646 54.7842 16.2339 54.3034 15.7131C53.8284 15.1866 53.4593 14.5771 53.196 13.8846C52.9327 13.1921 52.8011 12.4538 52.8011 11.6697C52.8011 10.7311 52.9327 9.85549 53.196 9.0428C53.465 8.23012 53.857 7.52618 54.3721 6.93098C54.8929 6.33005 55.5339 5.86075 56.2951 5.52309C57.062 5.1797 57.9405 5.00801 58.9306 5.00801C59.3254 5.00801 59.7261 5.03949 60.1324 5.10244C60.5387 5.1654 60.9279 5.28272 61.2999 5.45441Z" fill="black"/>
<path d="M70.3138 5.45441L70.0048 9.07714C69.8388 9.03136 69.6757 8.99988 69.5154 8.98271C69.3552 8.96554 69.1921 8.95696 69.0261 8.95696C68.6198 8.95696 68.2306 9.00847 67.8586 9.11148C67.4923 9.2145 67.1661 9.37188 66.88 9.58364C66.5995 9.79539 66.3735 10.0644 66.2018 10.3906C66.0358 10.7111 65.9528 11.0917 65.9528 11.5324C65.9528 11.8529 65.9986 12.1333 66.0902 12.3737C66.1875 12.6083 66.322 12.8057 66.4936 12.966C66.6711 13.1205 66.8828 13.2378 67.1289 13.318C67.3807 13.3981 67.6583 13.4382 67.9616 13.4382C68.1734 13.4382 68.3909 13.4181 68.6141 13.3781C68.8373 13.3323 69.0605 13.2722 69.2837 13.1978C69.5069 13.1234 69.7215 13.0375 69.9275 12.9402C70.1335 12.8429 70.3253 12.7399 70.5027 12.6312L70.3653 16.666C70.1421 16.7804 69.9018 16.8835 69.6442 16.975C69.3867 17.0609 69.1205 17.1353 68.8458 17.1982C68.5769 17.2669 68.305 17.3184 68.0303 17.3528C67.7613 17.3871 67.5038 17.4043 67.2577 17.4043C66.445 17.4043 65.7039 17.2526 65.0342 16.9493C64.3704 16.646 63.7981 16.2339 63.3173 15.7131C62.8423 15.1866 62.4732 14.5771 62.2099 13.8846C61.9466 13.1921 61.815 12.4538 61.815 11.6697C61.815 10.7311 61.9466 9.85549 62.2099 9.0428C62.4789 8.23012 62.8709 7.52618 63.386 6.93098C63.9068 6.33005 64.5478 5.86075 65.309 5.52309C66.0759 5.1797 66.9544 5.00801 67.9445 5.00801C68.3393 5.00801 68.74 5.03949 69.1463 5.10244C69.5526 5.1654 69.9418 5.28272 70.3138 5.45441Z" fill="black"/>
<path d="M78.6667 12.6312L78.3061 16.4428L71.0779 17.0094L71.3526 4.75047H75.8166L75.1813 12.6312H78.6667Z" fill="black"/>
<path d="M88.6507 10.2447C88.6507 10.7426 88.6163 11.2405 88.5477 11.7384C87.569 11.8013 86.5961 11.9044 85.6289 12.0474C84.6617 12.1848 83.6945 12.3221 82.7272 12.4595C82.876 12.8716 83.1078 13.2006 83.4226 13.4467C83.7431 13.6928 84.1237 13.8159 84.5644 13.8159C84.7933 13.8159 85.0422 13.773 85.3112 13.6871C85.5859 13.6013 85.8578 13.4954 86.1268 13.3695C86.3958 13.2378 86.6533 13.0976 86.8994 12.9488C87.1455 12.8 87.3572 12.6655 87.5347 12.5453L87.1226 16.4428C86.8994 16.6145 86.6562 16.7604 86.3929 16.8806C86.1354 17.0008 85.8664 17.0981 85.5859 17.1725C85.3055 17.2469 85.0222 17.3013 84.7361 17.3356C84.4499 17.3699 84.1695 17.3871 83.8948 17.3871C83.3282 17.3871 82.8102 17.3098 82.3409 17.1553C81.8716 17.0008 81.4453 16.7862 81.0618 16.5115C80.6841 16.231 80.3522 15.902 80.066 15.5242C79.7798 15.1465 79.5423 14.7344 79.3535 14.288C79.1646 13.8416 79.0215 13.3695 78.9242 12.8716C78.8269 12.3737 78.7783 11.87 78.7783 11.3607C78.7783 10.8284 78.8269 10.2962 78.9242 9.76392C79.0215 9.23167 79.1675 8.71945 79.3621 8.22726C79.5624 7.73507 79.8113 7.28009 80.1089 6.8623C80.4123 6.43879 80.7642 6.06965 81.1648 5.75488C81.5655 5.44011 82.0176 5.19401 82.5212 5.0166C83.0306 4.83918 83.5914 4.75047 84.2038 4.75047C84.7132 4.75047 85.1767 4.82201 85.5945 4.96509C86.018 5.10244 86.3929 5.29703 86.7191 5.54885C87.0511 5.79494 87.3372 6.08968 87.5776 6.43307C87.8237 6.77645 88.024 7.15418 88.1785 7.56624C88.3388 7.97258 88.4561 8.40468 88.5305 8.86253C88.6106 9.31465 88.6507 9.77536 88.6507 10.2447ZM85.2168 9.79825C85.2168 9.63801 85.1996 9.4749 85.1653 9.30893C85.131 9.13724 85.0737 8.98271 84.9936 8.84536C84.9192 8.708 84.819 8.5964 84.6931 8.51056C84.5672 8.41899 84.4098 8.3732 84.221 8.3732C83.9921 8.3732 83.7889 8.43615 83.6115 8.56206C83.4398 8.68225 83.291 8.83677 83.1651 9.02563C83.0392 9.20877 82.9361 9.40908 82.856 9.62656C82.7759 9.84404 82.7158 10.0443 82.6757 10.2275L85.2168 9.98712V9.79825Z" fill="black"/>
</svg>
