<svg width="18" height="18" viewBox="0 0 18 18" fill="none" xmlns="http://www.w3.org/2000/svg">
<path d="M15.1521 11.2711C15.1169 11.1445 15.1942 10.9687 15.2681 10.8422C15.2906 10.8045 15.3153 10.7681 15.3419 10.7332C15.9734 9.79483 16.3112 8.68967 16.3122 7.55859C16.3228 4.31719 13.5876 1.6875 10.2056 1.6875C7.25596 1.6875 4.79502 3.69492 4.21846 6.35977C4.1322 6.75474 4.08859 7.15783 4.08838 7.56211C4.08838 10.807 6.71807 13.507 10.1001 13.507C10.638 13.507 11.3622 13.3453 11.7595 13.2363C12.1567 13.1273 12.5505 12.9832 12.6524 12.9445C12.7569 12.9051 12.8677 12.8849 12.9794 12.8848C13.1013 12.8843 13.222 12.9082 13.3345 12.9551L15.3278 13.6617C15.3715 13.6802 15.4177 13.6921 15.4649 13.6969C15.5395 13.6969 15.6111 13.6672 15.6638 13.6145C15.7166 13.5618 15.7462 13.4902 15.7462 13.4156C15.7437 13.3834 15.7378 13.3516 15.7286 13.3207L15.1521 11.2711Z" stroke="black" stroke-width="1.125" stroke-miterlimit="10" stroke-linecap="round"/>
<path d="M2.33651 8.15625C1.87541 8.98462 1.65235 9.92436 1.692 10.8716C1.73164 11.8188 2.03245 12.7366 2.56115 13.5236C2.64236 13.6462 2.68807 13.7412 2.67401 13.8048C2.65994 13.8684 2.25459 15.9799 2.25459 15.9799C2.24484 16.0293 2.24854 16.0805 2.2653 16.128C2.28206 16.1754 2.31126 16.2176 2.34986 16.2499C2.40137 16.291 2.46542 16.3131 2.53127 16.3125C2.56646 16.3126 2.60129 16.3054 2.63358 16.2914L4.60971 15.518C4.74572 15.4643 4.89744 15.4669 5.03158 15.525C5.69744 15.7845 6.43361 15.9469 7.17014 15.9469C8.15847 15.9479 9.12946 15.6873 9.9844 15.1914" stroke="black" stroke-width="1.125" stroke-miterlimit="10" stroke-linecap="round"/>
</svg>
