<svg width="18" height="18" viewBox="0 0 18 18" fill="none" xmlns="http://www.w3.org/2000/svg">
<path d="M15.0361 12.355C14.1333 11.25 13.4959 10.6875 13.4959 7.64121C13.4959 4.85156 12.0714 3.8577 10.8989 3.375C10.7432 3.31102 10.5966 3.16406 10.5491 3.0041C10.3434 2.30414 9.76689 1.6875 9.00048 1.6875C8.23407 1.6875 7.65716 2.30449 7.4536 3.0048C7.40614 3.16652 7.25954 3.31102 7.1038 3.375C5.92993 3.8584 4.50681 4.84875 4.50681 7.64121C4.50505 10.6875 3.86767 11.25 2.96485 12.355C2.59079 12.8127 2.91845 13.5 3.57271 13.5H14.4318C15.0825 13.5 15.4081 12.8106 15.0361 12.355Z" stroke="black" stroke-width="1.125" stroke-linecap="round" stroke-linejoin="round"/>
<path d="M11.25 13.5V14.0625C11.25 14.6592 11.0129 15.2315 10.591 15.6535C10.169 16.0754 9.59674 16.3125 9 16.3125C8.40326 16.3125 7.83097 16.0754 7.40901 15.6535C6.98705 15.2315 6.75 14.6592 6.75 14.0625V13.5" stroke="black" stroke-width="1.125" stroke-linecap="round" stroke-linejoin="round"/>
</svg>
