<svg width="380" height="380" viewBox="0 0 380 380" fill="none" xmlns="http://www.w3.org/2000/svg">
<circle cx="190" cy="190" r="190" fill="#F0F0F0"/>
<mask id="mask0_101_531" style="mask-type:alpha" maskUnits="userSpaceOnUse" x="0" y="0" width="380" height="380">
<circle cx="190" cy="190" r="190" fill="#F0F0F0"/>
</mask>
<g mask="url(#mask0_101_531)">
<g filter="url(#filter0_ddddd_101_531)">
<path d="M38 128.8C38 121.519 38 117.879 39.4169 115.098C40.6633 112.652 42.652 110.663 45.0981 109.417C47.879 108 51.5193 108 58.8 108H321.2C328.481 108 332.121 108 334.902 109.417C337.348 110.663 339.337 112.652 340.583 115.098C342 117.879 342 121.519 342 128.8V360.2C342 367.481 342 371.121 340.583 373.902C339.337 376.348 337.348 378.337 334.902 379.583C332.121 381 328.481 381 321.2 381H58.8C51.5193 381 47.879 381 45.0981 379.583C42.652 378.337 40.6633 376.348 39.4169 373.902C38 371.121 38 367.481 38 360.2V128.8Z" fill="white"/>
</g>
<mask id="mask1_101_531" style="mask-type:alpha" maskUnits="userSpaceOnUse" x="43" y="112" width="293" height="263">
<path fill-rule="evenodd" clip-rule="evenodd" d="M43.0488 123.379C43.0164 123.638 43 126.85 43 127.112L43 360.022C43 368.24 59.0843 374.902 78.9253 374.902H299.944C319.785 374.902 335.87 368.24 335.87 360.022V127.112C335.87 127.08 335.869 127.048 335.869 127.016C335.727 117.95 338.365 112.232 325.389 112.232H245.176C242.299 112.232 240.938 112.232 236.498 112.232C227.113 112.232 233.617 112.232 224.066 112.232L158.355 112.232C148.804 112.232 151.756 112.232 140.595 112.232C137.043 112.232 136.74 112.232 133.694 112.232H81.472C72.52 112.232 63.2593 112.232 55.441 112.232C47.6227 112.232 43.0488 117.325 43.0488 123.427C43.0488 125.5 43 120.543 43.0488 123.379Z" fill="#F1F1F1"/>
</mask>
<g mask="url(#mask1_101_531)">
<rect x="43.6226" y="112.232" width="293" height="263.408" fill="#F8F8F8"/>
</g>
<circle cx="53.7759" cy="124.776" r="2.77586" fill="#FF5E58"/>
<circle cx="62.5" cy="124.776" r="2.77586" fill="#FFBF30"/>
<circle cx="71.2241" cy="124.776" r="2.77586" fill="#27C840"/>
<path d="M171.51 127.093H174.041C174.384 127.093 174.552 126.923 174.552 126.551V124.6C174.552 124.265 174.413 124.092 174.129 124.063V123.393C174.129 122.391 173.472 121.907 172.776 121.907C172.079 121.907 171.423 122.391 171.423 123.393V124.076C171.162 124.116 171 124.286 171 124.6V126.551C171 126.923 171.167 127.093 171.51 127.093ZM171.851 123.337C171.851 122.67 172.279 122.316 172.776 122.316C173.273 122.316 173.701 122.67 173.701 123.337V124.06L171.851 124.063V123.337Z" fill="#AEB4BA"/>
<path d="M178.943 127.059C178.668 127.059 178.418 126.994 178.194 126.864C177.974 126.735 177.799 126.56 177.669 126.339C177.543 126.115 177.48 125.868 177.48 125.596C177.48 125.321 177.543 125.073 177.669 124.853C177.799 124.633 177.974 124.46 178.194 124.334C178.418 124.204 178.668 124.139 178.943 124.139C179.159 124.139 179.36 124.181 179.545 124.263C179.73 124.342 179.889 124.458 180.022 124.611L179.669 124.965C179.582 124.863 179.476 124.786 179.35 124.735C179.228 124.68 179.093 124.653 178.943 124.653C178.766 124.653 178.609 124.694 178.471 124.776C178.334 124.855 178.225 124.965 178.147 125.107C178.068 125.248 178.029 125.411 178.029 125.596C178.029 125.781 178.068 125.944 178.147 126.086C178.225 126.227 178.334 126.339 178.471 126.422C178.609 126.505 178.766 126.546 178.943 126.546C179.093 126.546 179.228 126.52 179.35 126.469C179.476 126.414 179.584 126.335 179.674 126.233L180.022 126.587C179.893 126.737 179.733 126.853 179.545 126.935C179.36 127.018 179.159 127.059 178.943 127.059ZM180.531 127V124.198H181.062V127H180.531ZM180.797 123.638C180.698 123.638 180.618 123.607 180.555 123.544C180.492 123.477 180.46 123.394 180.46 123.296C180.46 123.202 180.492 123.123 180.555 123.06C180.618 122.993 180.698 122.96 180.797 122.96C180.895 122.96 180.976 122.993 181.038 123.06C181.101 123.123 181.133 123.202 181.133 123.296C181.133 123.394 181.101 123.477 181.038 123.544C180.976 123.607 180.895 123.638 180.797 123.638ZM181.821 127V124.198H182.352V127H181.821ZM182.352 125.402L182.151 125.313C182.151 124.955 182.234 124.67 182.399 124.458C182.564 124.246 182.802 124.139 183.112 124.139C183.254 124.139 183.382 124.165 183.496 124.216C183.61 124.263 183.716 124.344 183.814 124.458L183.466 124.818C183.407 124.755 183.342 124.71 183.272 124.682C183.201 124.655 183.118 124.641 183.024 124.641C182.827 124.641 182.666 124.704 182.54 124.829C182.414 124.955 182.352 125.146 182.352 125.402ZM185.352 127.059C185.077 127.059 184.827 126.994 184.603 126.864C184.383 126.735 184.208 126.56 184.078 126.339C183.952 126.115 183.889 125.868 183.889 125.596C183.889 125.321 183.952 125.073 184.078 124.853C184.208 124.633 184.383 124.46 184.603 124.334C184.827 124.204 185.077 124.139 185.352 124.139C185.568 124.139 185.769 124.181 185.954 124.263C186.139 124.342 186.298 124.458 186.432 124.611L186.078 124.965C185.991 124.863 185.885 124.786 185.759 124.735C185.637 124.68 185.502 124.653 185.352 124.653C185.175 124.653 185.018 124.694 184.88 124.776C184.743 124.855 184.635 124.965 184.556 125.107C184.477 125.248 184.438 125.411 184.438 125.596C184.438 125.781 184.477 125.944 184.556 126.086C184.635 126.227 184.743 126.339 184.88 126.422C185.018 126.505 185.175 126.546 185.352 126.546C185.502 126.546 185.637 126.52 185.759 126.469C185.885 126.414 185.993 126.335 186.084 126.233L186.432 126.587C186.302 126.737 186.143 126.853 185.954 126.935C185.769 127.018 185.568 127.059 185.352 127.059ZM188.157 127.059C187.881 127.059 187.632 126.994 187.408 126.864C187.187 126.735 187.012 126.56 186.883 126.339C186.757 126.115 186.694 125.868 186.694 125.596C186.694 125.321 186.757 125.073 186.883 124.853C187.012 124.633 187.187 124.46 187.408 124.334C187.632 124.204 187.881 124.139 188.157 124.139C188.373 124.139 188.573 124.181 188.758 124.263C188.943 124.342 189.102 124.458 189.236 124.611L188.882 124.965C188.796 124.863 188.689 124.786 188.564 124.735C188.442 124.68 188.306 124.653 188.157 124.653C187.98 124.653 187.822 124.694 187.685 124.776C187.547 124.855 187.439 124.965 187.36 125.107C187.282 125.248 187.242 125.411 187.242 125.596C187.242 125.781 187.282 125.944 187.36 126.086C187.439 126.227 187.547 126.339 187.685 126.422C187.822 126.505 187.98 126.546 188.157 126.546C188.306 126.546 188.442 126.52 188.564 126.469C188.689 126.414 188.798 126.335 188.888 126.233L189.236 126.587C189.106 126.737 188.947 126.853 188.758 126.935C188.573 127.018 188.373 127.059 188.157 127.059ZM189.739 127V122.789H190.27V127H189.739ZM192.32 127.059C192.041 127.059 191.79 126.996 191.565 126.87C191.341 126.74 191.164 126.566 191.035 126.345C190.905 126.125 190.84 125.875 190.84 125.596C190.84 125.321 190.903 125.073 191.029 124.853C191.158 124.633 191.331 124.46 191.548 124.334C191.768 124.204 192.014 124.139 192.285 124.139C192.544 124.139 192.773 124.198 192.969 124.316C193.17 124.434 193.325 124.598 193.435 124.806C193.549 125.014 193.606 125.25 193.606 125.514C193.606 125.553 193.604 125.596 193.6 125.643C193.596 125.687 193.588 125.738 193.577 125.797H191.212V125.354H193.294L193.099 125.525C193.099 125.337 193.065 125.177 192.999 125.048C192.932 124.914 192.837 124.812 192.716 124.741C192.594 124.666 192.446 124.629 192.273 124.629C192.092 124.629 191.933 124.668 191.795 124.747C191.658 124.826 191.552 124.936 191.477 125.077C191.402 125.219 191.365 125.386 191.365 125.579C191.365 125.775 191.404 125.948 191.483 126.098C191.561 126.243 191.674 126.357 191.819 126.44C191.964 126.518 192.132 126.558 192.32 126.558C192.478 126.558 192.621 126.53 192.751 126.475C192.885 126.42 192.999 126.337 193.093 126.227L193.435 126.575C193.301 126.733 193.136 126.853 192.94 126.935C192.747 127.018 192.541 127.059 192.32 127.059ZM194.627 127.059C194.517 127.059 194.425 127.022 194.35 126.947C194.279 126.868 194.244 126.776 194.244 126.67C194.244 126.56 194.279 126.469 194.35 126.398C194.425 126.324 194.517 126.286 194.627 126.286C194.737 126.286 194.828 126.324 194.899 126.398C194.973 126.469 195.011 126.56 195.011 126.67C195.011 126.776 194.973 126.868 194.899 126.947C194.828 127.022 194.737 127.059 194.627 127.059ZM197.013 127.059C196.738 127.059 196.488 126.994 196.264 126.864C196.044 126.735 195.869 126.56 195.739 126.339C195.613 126.115 195.55 125.868 195.55 125.596C195.55 125.321 195.613 125.073 195.739 124.853C195.869 124.633 196.044 124.46 196.264 124.334C196.488 124.204 196.738 124.139 197.013 124.139C197.229 124.139 197.43 124.181 197.615 124.263C197.8 124.342 197.959 124.458 198.092 124.611L197.739 124.965C197.652 124.863 197.546 124.786 197.42 124.735C197.298 124.68 197.163 124.653 197.013 124.653C196.836 124.653 196.679 124.694 196.541 124.776C196.404 124.855 196.296 124.965 196.217 125.107C196.138 125.248 196.099 125.411 196.099 125.596C196.099 125.781 196.138 125.944 196.217 126.086C196.296 126.227 196.404 126.339 196.541 126.422C196.679 126.505 196.836 126.546 197.013 126.546C197.163 126.546 197.298 126.52 197.42 126.469C197.546 126.414 197.654 126.335 197.744 126.233L198.092 126.587C197.963 126.737 197.803 126.853 197.615 126.935C197.43 127.018 197.229 127.059 197.013 127.059ZM199.818 127.059C199.542 127.059 199.295 126.994 199.074 126.864C198.854 126.735 198.679 126.56 198.55 126.339C198.42 126.115 198.355 125.866 198.355 125.59C198.355 125.319 198.42 125.075 198.55 124.859C198.679 124.639 198.854 124.464 199.074 124.334C199.295 124.204 199.542 124.139 199.818 124.139C200.089 124.139 200.335 124.204 200.555 124.334C200.779 124.46 200.956 124.633 201.086 124.853C201.215 125.073 201.28 125.319 201.28 125.59C201.28 125.866 201.215 126.115 201.086 126.339C200.956 126.56 200.779 126.735 200.555 126.864C200.335 126.994 200.089 127.059 199.818 127.059ZM199.818 126.546C199.995 126.546 200.152 126.505 200.289 126.422C200.427 126.339 200.535 126.227 200.614 126.086C200.692 125.94 200.732 125.775 200.732 125.59C200.732 125.409 200.691 125.248 200.608 125.107C200.529 124.965 200.421 124.855 200.284 124.776C200.15 124.694 199.995 124.653 199.818 124.653C199.641 124.653 199.483 124.694 199.346 124.776C199.208 124.855 199.1 124.965 199.021 125.107C198.943 125.248 198.903 125.409 198.903 125.59C198.903 125.775 198.943 125.94 199.021 126.086C199.1 126.227 199.208 126.339 199.346 126.422C199.483 126.505 199.641 126.546 199.818 126.546ZM201.855 127V124.198H202.386V127H201.855ZM203.748 127V125.307C203.748 125.099 203.683 124.936 203.554 124.818C203.428 124.696 203.268 124.635 203.076 124.635C202.946 124.635 202.83 124.662 202.728 124.717C202.626 124.772 202.543 124.849 202.48 124.947C202.417 125.046 202.386 125.164 202.386 125.301L202.167 125.195C202.167 124.983 202.213 124.798 202.303 124.641C202.397 124.483 202.525 124.362 202.686 124.275C202.848 124.185 203.029 124.139 203.229 124.139C203.426 124.139 203.603 124.183 203.76 124.269C203.921 124.356 204.047 124.478 204.137 124.635C204.232 124.792 204.279 124.979 204.279 125.195V127H203.748ZM205.641 127V125.307C205.641 125.099 205.577 124.936 205.447 124.818C205.321 124.696 205.164 124.635 204.975 124.635C204.845 124.635 204.727 124.662 204.621 124.717C204.519 124.772 204.436 124.849 204.373 124.947C204.31 125.046 204.279 125.164 204.279 125.301L203.978 125.195C203.99 124.979 204.047 124.794 204.149 124.641C204.255 124.483 204.391 124.362 204.556 124.275C204.721 124.185 204.902 124.139 205.099 124.139C205.303 124.139 205.486 124.183 205.647 124.269C205.809 124.356 205.936 124.478 206.031 124.635C206.129 124.792 206.178 124.981 206.178 125.201V127H205.641Z" fill="#AEB4BA"/>
<rect x="160" y="243" width="60" height="10" rx="5" fill="#EBEBEB"/>
<rect x="148" y="262" width="85" height="10" rx="5" fill="#EBEBEB"/>
<rect x="121" y="281" width="139" height="63" rx="5" fill="#EBEBEB"/>
<mask id="mask2_101_531" style="mask-type:alpha" maskUnits="userSpaceOnUse" x="159" y="171" width="63" height="63">
<path fill-rule="evenodd" clip-rule="evenodd" d="M190.5 234C207.897 234 222 219.897 222 202.5C222 185.103 207.897 171 190.5 171C173.103 171 159 185.103 159 202.5C159 219.897 173.103 234 190.5 234ZM213.682 199.231C210.745 202.666 206.608 204.805 202.024 204.805C193.113 204.805 185.89 196.722 185.89 186.75C185.89 184.242 186.347 181.852 187.173 179.681C176.007 181.377 167.451 191.018 167.451 202.657C167.451 206.054 168.179 209.279 169.488 212.188C170.816 210.952 172.683 210.183 174.75 210.183C178.781 210.183 182.049 213.107 182.049 216.714C182.049 219.136 180.575 221.249 178.387 222.377C181.955 224.608 186.173 225.899 190.692 225.899C203.528 225.899 213.933 215.493 213.933 202.657C213.933 201.493 213.847 200.349 213.682 199.231Z" fill="white"/>
</mask>
<g mask="url(#mask2_101_531)">
<path fill-rule="evenodd" clip-rule="evenodd" d="M190.5 234C207.897 234 222 219.897 222 202.5C222 185.103 207.897 171 190.5 171C173.103 171 159 185.103 159 202.5C159 219.897 173.103 234 190.5 234ZM213.682 199.231C210.745 202.666 206.608 204.805 202.024 204.805C193.113 204.805 185.89 196.722 185.89 186.75C185.89 184.242 186.347 181.852 187.173 179.681C176.007 181.377 167.451 191.018 167.451 202.657C167.451 206.054 168.179 209.279 169.488 212.188C170.816 210.952 172.683 210.183 174.75 210.183C178.781 210.183 182.049 213.107 182.049 216.714C182.049 219.136 180.575 221.249 178.387 222.377C181.955 224.608 186.173 225.899 190.692 225.899C203.528 225.899 213.933 215.493 213.933 202.657C213.933 201.493 213.847 200.349 213.682 199.231Z" fill="black"/>
<path d="M213.683 199.231L215.962 198.894L215.223 193.884L211.931 197.733L213.683 199.231ZM187.174 179.681L189.328 180.501L190.733 176.809L186.828 177.403L187.174 179.681ZM169.489 212.188L167.387 213.134L168.706 216.064L171.059 213.875L169.489 212.188ZM178.387 222.377L177.332 220.328L173.73 222.183L177.165 224.331L178.387 222.377ZM219.696 202.5C219.696 218.624 206.625 231.696 190.501 231.696V236.305C209.171 236.305 224.306 221.17 224.306 202.5H219.696ZM190.501 173.305C206.625 173.305 219.696 186.376 219.696 202.5H224.306C224.306 183.83 209.171 168.695 190.501 168.695V173.305ZM161.306 202.5C161.306 186.376 174.377 173.305 190.501 173.305V168.695C171.831 168.695 156.696 183.83 156.696 202.5H161.306ZM190.501 231.696C174.377 231.696 161.306 218.624 161.306 202.5H156.696C156.696 221.17 171.831 236.305 190.501 236.305V231.696ZM202.025 207.11C207.357 207.11 212.111 204.617 215.435 200.729L211.931 197.733C209.381 200.715 205.86 202.5 202.025 202.5V207.11ZM183.585 186.75C183.585 197.744 191.604 207.11 202.025 207.11V202.5C194.624 202.5 188.195 195.699 188.195 186.75H183.585ZM185.02 178.861C184.094 181.294 183.585 183.961 183.585 186.75H188.195C188.195 184.522 188.601 182.411 189.328 180.501L185.02 178.861ZM169.757 202.657C169.757 192.175 177.463 183.487 187.52 181.96L186.828 177.403C174.552 179.267 165.147 189.862 165.147 202.657H169.757ZM171.591 211.241C170.413 208.625 169.757 205.721 169.757 202.657H165.147C165.147 206.386 165.947 209.934 167.387 213.134L171.591 211.241ZM174.75 207.878C172.113 207.878 169.682 208.86 167.919 210.5L171.059 213.875C171.952 213.045 173.254 212.488 174.75 212.488V207.878ZM184.354 216.714C184.354 211.6 179.807 207.878 174.75 207.878V212.488C177.756 212.488 179.744 214.615 179.744 216.714H184.354ZM179.443 224.426C182.28 222.964 184.354 220.124 184.354 216.714H179.744C179.744 218.147 178.872 219.535 177.332 220.328L179.443 224.426ZM190.693 223.594C186.618 223.594 182.822 222.432 179.609 220.423L177.165 224.331C181.089 226.785 185.729 228.203 190.693 228.203V223.594ZM211.629 202.657C211.629 214.22 202.255 223.594 190.693 223.594V228.203C204.801 228.203 216.238 216.766 216.238 202.657H211.629ZM211.403 199.568C211.551 200.575 211.629 201.607 211.629 202.657H216.238C216.238 201.38 216.144 200.124 215.962 198.894L211.403 199.568Z" fill="black"/>
</g>
<mask id="path-18-outside-1_101_531" maskUnits="userSpaceOnUse" x="204.375" y="210.146" width="25" height="25" fill="black">
<rect fill="white" x="204.375" y="210.146" width="25" height="25"/>
<path d="M217.115 213.146C215.188 213.146 213.305 213.717 211.704 214.787C210.102 215.857 208.854 217.379 208.116 219.158C207.379 220.938 207.186 222.896 207.562 224.786C207.938 226.675 208.866 228.41 210.228 229.772C211.59 231.134 213.325 232.062 215.214 232.438C217.104 232.814 219.062 232.621 220.842 231.884C222.621 231.146 224.143 229.898 225.213 228.296C226.283 226.695 226.854 224.812 226.854 222.885C226.849 220.304 225.821 217.829 223.996 216.004C222.171 214.178 219.696 213.151 217.115 213.146ZM221.75 221.181L216.262 226.425C216.12 226.559 215.933 226.633 215.738 226.631C215.643 226.633 215.548 226.615 215.46 226.58C215.371 226.545 215.291 226.492 215.223 226.425L212.479 223.803C212.403 223.737 212.341 223.656 212.297 223.565C212.253 223.474 212.228 223.375 212.223 223.274C212.218 223.173 212.234 223.072 212.269 222.978C212.304 222.883 212.358 222.796 212.428 222.723C212.497 222.65 212.581 222.591 212.674 222.551C212.766 222.511 212.866 222.49 212.967 222.489C213.068 222.489 213.168 222.509 213.261 222.548C213.354 222.587 213.439 222.644 213.509 222.717L215.738 224.843L220.72 220.095C220.866 219.968 221.055 219.902 221.248 219.911C221.441 219.92 221.623 220.003 221.756 220.144C221.889 220.284 221.963 220.47 221.962 220.664C221.961 220.857 221.885 221.042 221.75 221.181Z"/>
</mask>
<path d="M217.115 213.146C215.188 213.146 213.305 213.717 211.704 214.787C210.102 215.857 208.854 217.379 208.116 219.158C207.379 220.938 207.186 222.896 207.562 224.786C207.938 226.675 208.866 228.41 210.228 229.772C211.59 231.134 213.325 232.062 215.214 232.438C217.104 232.814 219.062 232.621 220.842 231.884C222.621 231.146 224.143 229.898 225.213 228.296C226.283 226.695 226.854 224.812 226.854 222.885C226.849 220.304 225.821 217.829 223.996 216.004C222.171 214.178 219.696 213.151 217.115 213.146ZM221.75 221.181L216.262 226.425C216.12 226.559 215.933 226.633 215.738 226.631C215.643 226.633 215.548 226.615 215.46 226.58C215.371 226.545 215.291 226.492 215.223 226.425L212.479 223.803C212.403 223.737 212.341 223.656 212.297 223.565C212.253 223.474 212.228 223.375 212.223 223.274C212.218 223.173 212.234 223.072 212.269 222.978C212.304 222.883 212.358 222.796 212.428 222.723C212.497 222.65 212.581 222.591 212.674 222.551C212.766 222.511 212.866 222.49 212.967 222.489C213.068 222.489 213.168 222.509 213.261 222.548C213.354 222.587 213.439 222.644 213.509 222.717L215.738 224.843L220.72 220.095C220.866 219.968 221.055 219.902 221.248 219.911C221.441 219.92 221.623 220.003 221.756 220.144C221.889 220.284 221.963 220.47 221.962 220.664C221.961 220.857 221.885 221.042 221.75 221.181Z" fill="#2FDF84"/>
<path d="M226.854 222.885H228.979L228.979 222.881L226.854 222.885ZM221.75 221.181L223.218 222.717L223.247 222.69L223.275 222.661L221.75 221.181ZM216.262 226.425L217.718 227.973L217.724 227.967L217.731 227.962L216.262 226.425ZM215.738 226.631L215.751 224.506L215.729 224.506L215.707 224.507L215.738 226.631ZM215.46 226.58L216.249 224.607L215.46 226.58ZM215.223 226.425L216.71 224.908L216.701 224.898L216.691 224.889L215.223 226.425ZM212.479 223.803L213.947 222.267L213.912 222.234L213.876 222.202L212.479 223.803ZM213.509 222.717L211.984 224.197L212.013 224.226L212.042 224.255L213.509 222.717ZM215.738 224.843L214.271 226.38L215.737 227.779L217.204 226.381L215.738 224.843ZM220.72 220.095L219.323 218.493L219.288 218.524L219.254 218.556L220.72 220.095ZM217.115 211.021C214.768 211.021 212.474 211.717 210.523 213.02L212.884 216.554C214.136 215.717 215.609 215.271 217.115 215.271V211.021ZM210.523 213.02C208.572 214.324 207.051 216.177 206.153 218.345L210.08 219.971C210.656 218.58 211.632 217.391 212.884 216.554L210.523 213.02ZM206.153 218.345C205.255 220.513 205.02 222.899 205.478 225.2L209.646 224.371C209.353 222.894 209.503 221.363 210.08 219.971L206.153 218.345ZM205.478 225.2C205.936 227.502 207.066 229.616 208.725 231.275L211.73 228.27C210.665 227.205 209.94 225.848 209.646 224.371L205.478 225.2ZM208.725 231.275C210.384 232.934 212.498 234.064 214.8 234.522L215.629 230.354C214.152 230.06 212.795 229.335 211.73 228.27L208.725 231.275ZM214.8 234.522C217.101 234.98 219.487 234.745 221.655 233.847L220.029 229.92C218.637 230.497 217.106 230.647 215.629 230.354L214.8 234.522ZM221.655 233.847C223.823 232.949 225.676 231.428 226.98 229.477L223.446 227.116C222.609 228.368 221.42 229.344 220.029 229.92L221.655 233.847ZM226.98 229.477C228.283 227.526 228.979 225.232 228.979 222.885H224.729C224.729 224.391 224.283 225.864 223.446 227.116L226.98 229.477ZM228.979 222.881C228.973 219.738 227.722 216.724 225.499 214.501L222.493 217.507C223.921 218.934 224.725 220.87 224.729 222.889L228.979 222.881ZM225.499 214.501C223.276 212.278 220.262 211.027 217.119 211.021L217.111 215.271C219.13 215.275 221.066 216.079 222.493 217.507L225.499 214.501ZM220.282 219.645L214.794 224.889L217.731 227.962L223.218 222.717L220.282 219.645ZM214.806 224.878C215.062 224.637 215.4 224.504 215.751 224.506L215.725 228.756C216.465 228.761 217.179 228.481 217.718 227.973L214.806 224.878ZM215.707 224.507C215.893 224.504 216.077 224.538 216.249 224.607L214.671 228.553C215.02 228.692 215.393 228.762 215.768 228.756L215.707 224.507ZM216.249 224.607C216.421 224.676 216.578 224.778 216.71 224.908L213.735 227.943C214.004 228.206 214.322 228.413 214.671 228.553L216.249 224.607ZM216.691 224.889L213.947 222.267L211.011 225.339L213.755 227.962L216.691 224.889ZM213.876 222.202C214.016 222.324 214.129 222.473 214.21 222.64L210.384 224.49C210.552 224.839 210.79 225.15 211.082 225.404L213.876 222.202ZM214.21 222.64C214.291 222.807 214.337 222.988 214.346 223.174L210.1 223.374C210.119 223.762 210.215 224.141 210.384 224.49L214.21 222.64ZM214.346 223.174C214.354 223.359 214.326 223.544 214.261 223.718L210.277 222.237C210.142 222.601 210.082 222.987 210.1 223.374L214.346 223.174ZM214.261 223.718C214.196 223.892 214.097 224.051 213.97 224.185L210.886 221.261C210.619 221.542 210.412 221.874 210.277 222.237L214.261 223.718ZM213.97 224.185C213.842 224.32 213.689 224.427 213.518 224.501L211.829 220.601C211.473 220.755 211.152 220.98 210.886 221.261L213.97 224.185ZM213.518 224.501C213.348 224.575 213.165 224.613 212.979 224.614L212.955 220.364C212.567 220.367 212.184 220.447 211.829 220.601L213.518 224.501ZM212.979 224.614C212.794 224.615 212.61 224.579 212.439 224.507L214.083 220.588C213.726 220.438 213.342 220.362 212.955 220.364L212.979 224.614ZM212.439 224.507C212.268 224.436 212.113 224.33 211.984 224.197L215.034 221.237C214.764 220.959 214.441 220.738 214.083 220.588L212.439 224.507ZM212.042 224.255L214.271 226.38L217.205 223.305L214.976 221.179L212.042 224.255ZM217.204 226.381L222.186 221.633L219.254 218.556L214.272 223.304L217.204 226.381ZM222.117 221.696C221.85 221.929 221.502 222.05 221.148 222.033L221.348 217.788C220.608 217.753 219.882 218.006 219.323 218.493L222.117 221.696ZM221.148 222.033C220.793 222.017 220.459 221.863 220.214 221.606L223.298 218.681C222.788 218.143 222.089 217.823 221.348 217.788L221.148 222.033ZM220.214 221.606C219.97 221.348 219.835 221.006 219.837 220.651L224.087 220.676C224.091 219.934 223.809 219.22 223.298 218.681L220.214 221.606ZM219.837 220.651C219.839 220.296 219.978 219.956 220.225 219.701L223.275 222.661C223.792 222.129 224.082 221.418 224.087 220.676L219.837 220.651Z" fill="#F8F8F8" mask="url(#path-18-outside-1_101_531)"/>
</g>
<defs>
<filter id="filter0_ddddd_101_531" x="27.9623" y="85.0566" width="326.943" height="307.415" filterUnits="userSpaceOnUse" color-interpolation-filters="sRGB">
<feFlood flood-opacity="0" result="BackgroundImageFix"/>
<feColorMatrix in="SourceAlpha" type="matrix" values="0 0 0 0 0 0 0 0 0 0 0 0 0 0 0 0 0 0 127 0" result="hardAlpha"/>
<feOffset/>
<feGaussianBlur stdDeviation="2.86792"/>
<feComposite in2="hardAlpha" operator="out"/>
<feColorMatrix type="matrix" values="0 0 0 0 0.7 0 0 0 0 0.7 0 0 0 0 0.7 0 0 0 0.31 0"/>
<feBlend mode="normal" in2="BackgroundImageFix" result="effect1_dropShadow_101_531"/>
<feColorMatrix in="SourceAlpha" type="matrix" values="0 0 0 0 0 0 0 0 0 0 0 0 0 0 0 0 0 0 127 0" result="hardAlpha"/>
<feOffset dy="-14.3396"/>
<feGaussianBlur stdDeviation="4.30189"/>
<feComposite in2="hardAlpha" operator="out"/>
<feColorMatrix type="matrix" values="0 0 0 0 0.862745 0 0 0 0 0.862745 0 0 0 0 0.862745 0 0 0 0.29 0"/>
<feBlend mode="normal" in2="effect1_dropShadow_101_531" result="effect2_dropShadow_101_531"/>
<feColorMatrix in="SourceAlpha" type="matrix" values="0 0 0 0 0 0 0 0 0 0 0 0 0 0 0 0 0 0 127 0" result="hardAlpha"/>
<feOffset dx="4.30189" dy="2.86792"/>
<feGaussianBlur stdDeviation="4.30189"/>
<feComposite in2="hardAlpha" operator="out"/>
<feColorMatrix type="matrix" values="0 0 0 0 0.741667 0 0 0 0 0.741667 0 0 0 0 0.741667 0 0 0 0.34 0"/>
<feBlend mode="normal" in2="effect2_dropShadow_101_531" result="effect3_dropShadow_101_531"/>
<feColorMatrix in="SourceAlpha" type="matrix" values="0 0 0 0 0 0 0 0 0 0 0 0 0 0 0 0 0 0 127 0" result="hardAlpha"/>
<feOffset dx="-4.30189" dy="2.86792"/>
<feGaussianBlur stdDeviation="2.86792"/>
<feComposite in2="hardAlpha" operator="out"/>
<feColorMatrix type="matrix" values="0 0 0 0 0.741176 0 0 0 0 0.741176 0 0 0 0 0.741176 0 0 0 0.34 0"/>
<feBlend mode="normal" in2="effect3_dropShadow_101_531" result="effect4_dropShadow_101_531"/>
<feColorMatrix in="SourceAlpha" type="matrix" values="0 0 0 0 0 0 0 0 0 0 0 0 0 0 0 0 0 0 127 0" result="hardAlpha"/>
<feOffset dy="-2.86792"/>
<feGaussianBlur stdDeviation="2.86792"/>
<feComposite in2="hardAlpha" operator="out"/>
<feColorMatrix type="matrix" values="0 0 0 0 0.741176 0 0 0 0 0.741176 0 0 0 0 0.741176 0 0 0 0.34 0"/>
<feBlend mode="normal" in2="effect4_dropShadow_101_531" result="effect5_dropShadow_101_531"/>
<feBlend mode="normal" in="SourceGraphic" in2="effect5_dropShadow_101_531" result="shape"/>
</filter>
</defs>
</svg>
