<svg width="52" height="45" viewBox="0 0 52 45" fill="none" xmlns="http://www.w3.org/2000/svg">
<circle cx="1.52913" cy="1.52913" r="1.52913" fill="#2176FF"/>
<circle cx="11.1408" cy="1.52913" r="1.52913" fill="#2176FF"/>
<circle cx="20.7524" cy="1.52913" r="1.52913" fill="#2176FF"/>
<circle cx="30.3641" cy="1.52913" r="1.52913" fill="#2176FF"/>
<circle cx="39.9757" cy="1.52913" r="1.52913" fill="#2176FF"/>
<circle cx="49.5874" cy="1.52913" r="1.52913" fill="#2176FF"/>
<circle cx="1.52913" cy="15.5097" r="1.52913" fill="#2176FF"/>
<circle cx="11.1408" cy="15.5097" r="1.52913" fill="#2176FF"/>
<circle cx="20.7524" cy="15.5097" r="1.52913" fill="#2176FF"/>
<circle cx="30.3641" cy="15.5097" r="1.52913" fill="#2176FF"/>
<circle cx="39.9757" cy="15.5097" r="1.52913" fill="#2176FF"/>
<circle cx="49.5874" cy="15.5097" r="1.52913" fill="#2176FF"/>
<circle cx="1.52913" cy="29.4903" r="1.52913" fill="#2176FF"/>
<circle cx="11.1408" cy="29.4903" r="1.52913" fill="#2176FF"/>
<circle cx="20.7524" cy="29.4903" r="1.52913" fill="#2176FF"/>
<circle cx="30.3641" cy="29.4903" r="1.52913" fill="#2176FF"/>
<circle cx="39.9757" cy="29.4903" r="1.52913" fill="#2176FF"/>
<circle cx="49.5874" cy="29.4903" r="1.52913" fill="#2176FF"/>
<circle cx="1.52913" cy="43.4709" r="1.52913" fill="#2176FF"/>
<circle cx="11.1408" cy="43.4709" r="1.52913" fill="#2176FF"/>
<circle cx="20.7524" cy="43.4709" r="1.52913" fill="#2176FF"/>
<circle cx="30.3641" cy="43.4709" r="1.52913" fill="#2176FF"/>
<circle cx="39.9757" cy="43.4709" r="1.52913" fill="#2176FF"/>
<circle cx="49.5874" cy="43.4709" r="1.52913" fill="#2176FF"/>
</svg>
