<svg width="28" height="28" viewBox="0 0 28 28" fill="none" xmlns="http://www.w3.org/2000/svg">
<path d="M14 16.625C15.4497 16.625 16.625 15.4497 16.625 14C16.625 12.5503 15.4497 11.375 14 11.375C12.5503 11.375 11.375 12.5503 11.375 14C11.375 15.4497 12.5503 16.625 14 16.625Z" fill="black"/>
<path d="M14 25.375C15.4497 25.375 16.625 24.1997 16.625 22.75C16.625 21.3003 15.4497 20.125 14 20.125C12.5503 20.125 11.375 21.3003 11.375 22.75C11.375 24.1997 12.5503 25.375 14 25.375Z" fill="black"/>
<path d="M14 7.875C15.4497 7.875 16.625 6.69975 16.625 5.25C16.625 3.80025 15.4497 2.625 14 2.625C12.5503 2.625 11.375 3.80025 11.375 5.25C11.375 6.69975 12.5503 7.875 14 7.875Z" fill="black"/>
</svg>
