<svg width="58" height="14" viewBox="0 0 58 14" fill="none" xmlns="http://www.w3.org/2000/svg">
<path d="M0.195312 4.65039C0.195312 4.42904 0.224609 4.18815 0.283203 3.92773C0.348307 3.66732 0.436198 3.4069 0.546875 3.14648C0.657552 2.87956 0.791016 2.6224 0.947266 2.375C1.10352 2.12109 1.2793 1.89974 1.47461 1.71094C1.66992 1.51562 1.88151 1.36263 2.10938 1.25195C2.33724 1.13477 2.57812 1.07617 2.83203 1.07617C3.04036 1.07617 3.23568 1.10547 3.41797 1.16406C3.60026 1.21615 3.75651 1.29753 3.88672 1.4082C4.01693 1.51888 4.11784 1.65885 4.18945 1.82812C4.26758 1.99089 4.30664 2.1862 4.30664 2.41406C4.16341 2.41406 4.04622 2.37826 3.95508 2.30664C3.87044 2.22852 3.78906 2.14388 3.71094 2.05273C3.63932 1.96159 3.55794 1.88021 3.4668 1.80859C3.38216 1.73698 3.27148 1.70117 3.13477 1.70117C2.93294 1.70117 2.73763 1.75326 2.54883 1.85742C2.36654 1.96159 2.19401 2.10156 2.03125 2.27734C1.875 2.45312 1.73503 2.65169 1.61133 2.87305C1.49414 3.0944 1.38997 3.31901 1.29883 3.54688C1.21419 3.76823 1.14583 3.98633 1.09375 4.20117C1.04818 4.41602 1.02539 4.60156 1.02539 4.75781C1.02539 5.09635 1.07422 5.41536 1.17188 5.71484C1.27604 6.00781 1.42253 6.26497 1.61133 6.48633C1.80013 6.70117 2.03451 6.87044 2.31445 6.99414C2.5944 7.11784 2.91341 7.17969 3.27148 7.17969C3.49935 7.17969 3.71419 7.14714 3.91602 7.08203C4.12435 7.01042 4.32292 6.93555 4.51172 6.85742C4.70703 6.77279 4.89909 6.69466 5.08789 6.62305C5.27669 6.55143 5.46549 6.51562 5.6543 6.51562C5.68034 6.51562 5.71615 6.51888 5.76172 6.52539C5.8138 6.52539 5.85938 6.5319 5.89844 6.54492C5.94401 6.55794 5.98307 6.58073 6.01562 6.61328C6.04818 6.63932 6.06445 6.68164 6.06445 6.74023C6.06445 6.97461 5.97331 7.17318 5.79102 7.33594C5.61523 7.4987 5.40365 7.63216 5.15625 7.73633C4.90885 7.83398 4.65169 7.9056 4.38477 7.95117C4.11784 7.99674 3.89974 8.01953 3.73047 8.01953C3.23568 8.01953 2.77344 7.94141 2.34375 7.78516C1.91406 7.6224 1.53971 7.39453 1.2207 7.10156C0.901693 6.80859 0.651042 6.45703 0.46875 6.04688C0.286458 5.63021 0.195312 5.16471 0.195312 4.65039ZM6.43461 6.01758C6.43461 5.61393 6.52901 5.23958 6.71781 4.89453C6.90661 4.54297 7.15401 4.24349 7.46 3.99609C7.7725 3.74219 8.12081 3.54362 8.50492 3.40039C8.89555 3.25716 9.28943 3.18555 9.68656 3.18555C9.90792 3.18555 10.1032 3.25716 10.2725 3.40039C10.4483 3.54362 10.5948 3.7194 10.712 3.92773C10.8291 4.12956 10.917 4.3444 10.9756 4.57227C11.0407 4.80013 11.0733 4.9987 11.0733 5.16797C11.0733 5.53255 10.9854 5.88737 10.8096 6.23242C10.6338 6.57096 10.406 6.8737 10.126 7.14062C9.84607 7.40104 9.53031 7.61263 9.17875 7.77539C8.82719 7.93815 8.47563 8.01953 8.12406 8.01953C7.81156 8.01953 7.54789 7.96745 7.33305 7.86328C7.1182 7.7526 6.94568 7.60938 6.81547 7.43359C6.68526 7.2513 6.5876 7.03971 6.5225 6.79883C6.46391 6.55143 6.43461 6.29102 6.43461 6.01758ZM7.26469 6.11523C7.26469 6.28451 7.27771 6.43424 7.30375 6.56445C7.3363 6.68815 7.38839 6.79557 7.46 6.88672C7.53813 6.97786 7.63904 7.04948 7.76273 7.10156C7.88643 7.14714 8.03943 7.16992 8.22172 7.16992C8.4626 7.16992 8.70349 7.10482 8.94438 6.97461C9.18526 6.83789 9.4001 6.66862 9.58891 6.4668C9.78422 6.25846 9.94047 6.0306 10.0577 5.7832C10.1748 5.53581 10.2334 5.29492 10.2334 5.06055C10.2334 4.95638 10.2237 4.84245 10.2041 4.71875C10.1846 4.59505 10.1521 4.48112 10.1065 4.37695C10.0609 4.27279 9.99581 4.1849 9.91117 4.11328C9.82654 4.04167 9.71911 4.00586 9.58891 4.00586C9.47172 4.00586 9.33174 4.04492 9.16898 4.12305C9.01273 4.20117 8.84672 4.30208 8.67094 4.42578C8.50167 4.54948 8.3324 4.68945 8.16313 4.8457C8.00036 5.00195 7.85063 5.1582 7.71391 5.31445C7.57719 5.4707 7.46651 5.62044 7.38188 5.76367C7.30375 5.9069 7.26469 6.02409 7.26469 6.11523ZM11.1993 3.89844C11.1993 3.73568 11.2253 3.60872 11.2774 3.51758C11.336 3.42643 11.4565 3.38086 11.6388 3.38086C11.6583 3.38086 11.6941 3.38411 11.7462 3.39062C11.8048 3.39062 11.8406 3.39062 11.8536 3.39062C11.8992 3.59245 11.9447 3.8138 11.9903 4.05469C12.0424 4.28906 12.101 4.52669 12.1661 4.76758C12.2312 5.00846 12.3028 5.24609 12.3809 5.48047C12.4656 5.71484 12.5665 5.92643 12.6837 6.11523C12.8009 5.99154 12.8855 5.84505 12.9376 5.67578C12.9897 5.50651 13.0287 5.33724 13.0548 5.16797C13.0808 4.99219 13.1036 4.82617 13.1231 4.66992C13.1492 4.50716 13.198 4.37044 13.2696 4.25977C13.3412 4.14258 13.4454 4.05794 13.5821 4.00586C13.7253 3.95378 13.9207 3.95378 14.168 4.00586C14.4415 4.00586 14.6596 4.05794 14.8223 4.16211C14.9851 4.25977 15.1251 4.38672 15.2423 4.54297C15.366 4.69271 15.4832 4.85547 15.5938 5.03125C15.711 5.20052 15.8575 5.35352 16.0333 5.49023C16.0723 5.4056 16.1212 5.30143 16.1798 5.17773C16.2384 5.04753 16.31 4.91406 16.3946 4.77734C16.4858 4.63411 16.5802 4.49414 16.6778 4.35742C16.782 4.21419 16.8894 4.08724 17.0001 3.97656C17.1108 3.85938 17.2247 3.76497 17.3419 3.69336C17.4591 3.61523 17.573 3.57617 17.6837 3.57617C17.9506 3.57617 18.1817 3.66081 18.377 3.83008C18.5723 3.99284 18.7384 4.20117 18.8751 4.45508C19.0183 4.70247 19.1355 4.98242 19.2266 5.29492C19.3178 5.60091 19.3894 5.89714 19.4415 6.18359C19.4936 6.47005 19.5294 6.73372 19.5489 6.97461C19.5749 7.20898 19.588 7.37826 19.588 7.48242C19.588 7.56706 19.5684 7.63216 19.5294 7.67773C19.4903 7.72331 19.4415 7.75911 19.3829 7.78516C19.3243 7.80469 19.2592 7.81771 19.1876 7.82422C19.1225 7.83073 19.0606 7.83398 19.002 7.83398C18.989 7.83398 18.9695 7.83398 18.9434 7.83398C18.9174 7.82747 18.8881 7.82096 18.8555 7.81445C18.8295 7.80794 18.7937 7.79818 18.7481 7.78516L18.1134 4.86523C18.1134 4.8457 18.0873 4.8099 18.0352 4.75781C17.9832 4.69922 17.9441 4.66341 17.918 4.65039C17.8985 4.65039 17.8822 4.64714 17.8692 4.64062C17.8562 4.64062 17.8464 4.64062 17.8399 4.64062C17.8334 4.63411 17.8269 4.63086 17.8204 4.63086C17.6837 4.63086 17.5535 4.6862 17.4298 4.79688C17.3126 4.90755 17.2019 5.04753 17.0977 5.2168C16.9936 5.38607 16.8959 5.57487 16.8048 5.7832C16.7136 5.99154 16.6322 6.19987 16.5606 6.4082C16.489 6.61003 16.4239 6.79883 16.3653 6.97461C16.3132 7.14388 16.2709 7.27409 16.2384 7.36523C16.2123 7.37826 16.1602 7.39128 16.0821 7.4043C16.004 7.41081 15.9519 7.41406 15.9259 7.41406C15.7436 7.41406 15.6036 7.35221 15.5059 7.22852C15.4083 7.09831 15.3269 6.9388 15.2618 6.75C15.2032 6.5612 15.1511 6.35612 15.1055 6.13477C15.0665 5.9069 15.0144 5.69857 14.9493 5.50977C14.8907 5.32096 14.8061 5.16471 14.6954 5.04102C14.5912 4.91081 14.4415 4.8457 14.2462 4.8457C14.1746 4.8457 14.1062 4.91732 14.0411 5.06055C13.976 5.20378 13.9174 5.38607 13.8653 5.60742C13.8132 5.82227 13.7644 6.05664 13.7188 6.31055C13.6733 6.55794 13.6342 6.79232 13.6016 7.01367C13.5756 7.22852 13.5561 7.41081 13.543 7.56055C13.53 7.71029 13.5235 7.78516 13.5235 7.78516C13.5105 7.80469 13.4845 7.82747 13.4454 7.85352C13.4063 7.87305 13.364 7.89583 13.3184 7.92188C13.2794 7.94792 13.2371 7.96745 13.1915 7.98047C13.1524 7.99349 13.1231 8 13.1036 8C12.9213 8 12.7455 7.91862 12.5763 7.75586C12.407 7.58659 12.2507 7.37174 12.1075 7.11133C11.9708 6.8444 11.8438 6.55143 11.7266 6.23242C11.616 5.91341 11.5216 5.60091 11.4434 5.29492C11.3653 4.98893 11.3035 4.71224 11.2579 4.46484C11.2188 4.21745 11.1993 4.02865 11.1993 3.89844ZM20.3585 4.33789C20.3585 4.29883 20.3585 4.23698 20.3585 4.15234C20.365 4.0612 20.3683 3.9668 20.3683 3.86914C20.3748 3.77148 20.378 3.67708 20.378 3.58594C20.3846 3.49479 20.3878 3.42969 20.3878 3.39062C20.4594 3.28646 20.5506 3.20182 20.6612 3.13672C20.7784 3.07161 20.8956 3.01953 21.0128 2.98047C21.0323 3.33203 21.0877 3.70638 21.1788 4.10352C21.27 4.50065 21.3676 4.90104 21.4718 5.30469C21.576 5.70182 21.6671 6.0957 21.7452 6.48633C21.8299 6.87695 21.8722 7.24154 21.8722 7.58008C21.8722 7.87305 21.7224 8.01953 21.423 8.01953C21.2407 8.01953 21.0877 7.94466 20.964 7.79492C20.8403 7.64518 20.7394 7.45638 20.6612 7.22852C20.5896 6.99414 20.531 6.73698 20.4855 6.45703C20.4399 6.17057 20.4073 5.89062 20.3878 5.61719C20.3748 5.34375 20.365 5.0931 20.3585 4.86523C20.3585 4.63737 20.3585 4.46159 20.3585 4.33789ZM20.4952 0.675781C20.6189 0.727865 20.7231 0.8125 20.8077 0.929688C20.8924 1.04688 20.9282 1.1543 20.9152 1.25195C20.9086 1.3431 20.837 1.4082 20.7003 1.44727C20.5636 1.47982 20.3357 1.44076 20.0167 1.33008C20.0167 1.1543 20.0493 1.0013 20.1144 0.871094C20.186 0.740885 20.3129 0.675781 20.4952 0.675781ZM22.213 4.70898C22.213 4.53971 22.2554 4.41927 22.34 4.34766C22.4246 4.26953 22.5614 4.23047 22.7502 4.23047H22.8478C22.8673 4.33464 22.8901 4.45508 22.9162 4.5918C22.9422 4.72852 22.9813 4.86849 23.0334 5.01172C23.0854 5.15495 23.1473 5.28841 23.2189 5.41211C23.2905 5.5293 23.3784 5.6237 23.4826 5.69531C23.4891 5.46745 23.5444 5.24935 23.6486 5.04102C23.7593 4.82617 23.8927 4.63737 24.049 4.47461C24.2117 4.30534 24.3875 4.16536 24.5763 4.05469C24.7716 3.9375 24.9637 3.85938 25.1525 3.82031H25.3673C25.6798 3.82031 25.9468 3.89193 26.1681 4.03516C26.3895 4.17188 26.5718 4.35417 26.715 4.58203C26.8647 4.80339 26.9787 5.05729 27.0568 5.34375C27.1349 5.63021 27.1935 5.92318 27.2326 6.22266C27.2782 6.51562 27.3042 6.80208 27.3107 7.08203C27.3237 7.35547 27.3302 7.58984 27.3302 7.78516H26.6173C26.5783 7.39453 26.5295 7.02018 26.4709 6.66211C26.4513 6.51888 26.4253 6.36914 26.3927 6.21289C26.3602 6.05013 26.3244 5.90039 26.2853 5.76367C26.2463 5.62044 26.2039 5.49023 26.1584 5.37305C26.1128 5.24935 26.0607 5.14518 26.0021 5.06055C25.9761 5.03451 25.9403 4.9987 25.8947 4.95312C25.8556 4.90755 25.8133 4.86198 25.7677 4.81641C25.7222 4.77083 25.6798 4.73177 25.6408 4.69922C25.6017 4.66667 25.5789 4.65039 25.5724 4.65039C25.3771 4.59831 25.2078 4.63737 25.0646 4.76758C24.9214 4.89128 24.7944 5.06055 24.6838 5.27539C24.5731 5.49023 24.4819 5.73438 24.4103 6.00781C24.3452 6.28125 24.2899 6.54492 24.2443 6.79883C24.1987 7.04622 24.1662 7.26432 24.1466 7.45312C24.1271 7.63542 24.1141 7.74609 24.1076 7.78516C23.9448 7.90234 23.7918 7.93815 23.6486 7.89258C23.5054 7.84049 23.3686 7.73633 23.2384 7.58008C23.1147 7.42383 23.0008 7.22852 22.8966 6.99414C22.799 6.75977 22.7078 6.51237 22.6232 6.25195C22.5386 5.98503 22.4604 5.7181 22.3888 5.45117C22.3237 5.18424 22.2651 4.93685 22.213 4.70898ZM30.3469 13.1953C30.7115 13.1953 31.037 13.127 31.3234 12.9902C31.6099 12.86 31.8508 12.6777 32.0461 12.4434C32.2479 12.2155 32.4009 11.9518 32.5051 11.6523C32.6158 11.3594 32.6711 11.0534 32.6711 10.7344C32.6711 10.5716 32.6613 10.3568 32.6418 10.0898C32.6288 9.82292 32.606 9.5332 32.5734 9.2207C32.5409 8.9082 32.4921 8.58919 32.427 8.26367C32.3684 7.93815 32.2935 7.63216 32.2023 7.3457C32.1112 7.05273 31.9973 6.79883 31.8605 6.58398C31.7303 6.36263 31.5773 6.20638 31.4016 6.11523C31.2323 6.24544 31.0663 6.36589 30.9035 6.47656C30.7408 6.58073 30.5715 6.66862 30.3957 6.74023C30.2199 6.81185 30.0376 6.87044 29.8488 6.91602C29.66 6.95508 29.4582 6.97461 29.2434 6.97461C28.9634 6.97461 28.7225 6.94857 28.5207 6.89648C28.3254 6.8444 28.1594 6.75651 28.0227 6.63281C27.8924 6.50911 27.7948 6.34635 27.7297 6.14453C27.6646 5.94271 27.632 5.6888 27.632 5.38281C27.632 5.16797 27.6841 4.95964 27.7883 4.75781C27.8924 4.54948 28.0292 4.35742 28.1984 4.18164C28.3742 3.99935 28.5695 3.83333 28.7844 3.68359C29.0057 3.53385 29.2303 3.40365 29.4582 3.29297C29.6926 3.18229 29.9204 3.09766 30.1418 3.03906C30.3697 2.98047 30.5715 2.95117 30.7473 2.95117C30.9165 2.95117 31.0565 2.95768 31.1672 2.9707C31.2779 2.97721 31.3723 3.00326 31.4504 3.04883C31.5285 3.08789 31.5936 3.15299 31.6457 3.24414C31.7043 3.32878 31.7596 3.44596 31.8117 3.5957C31.9615 4.10352 32.134 4.65039 32.3293 5.23633C32.5246 5.82227 32.7102 6.42448 32.8859 7.04297C33.0617 7.66146 33.2082 8.2832 33.3254 8.9082C33.4491 9.53971 33.5109 10.1484 33.5109 10.7344C33.5109 11.2552 33.4361 11.6947 33.2863 12.0527C33.1431 12.4173 32.951 12.7135 32.7102 12.9414C32.4758 13.1758 32.2056 13.3548 31.8996 13.4785C31.6001 13.6022 31.2974 13.6803 30.9914 13.7129C30.6854 13.752 30.3892 13.7617 30.1027 13.7422C29.8163 13.7227 29.5689 13.6836 29.3605 13.625C29.1522 13.5729 28.9927 13.5111 28.882 13.4395C28.7779 13.3678 28.7518 13.306 28.8039 13.2539C28.8625 13.2083 29.0122 13.1758 29.2531 13.1562C29.494 13.1367 29.8586 13.1497 30.3469 13.1953ZM30.4836 3.77148C30.0018 3.87565 29.6112 4.02214 29.3117 4.21094C29.0187 4.39323 28.7974 4.5918 28.6477 4.80664C28.5044 5.01497 28.4263 5.22656 28.4133 5.44141C28.4003 5.64974 28.4393 5.82878 28.5305 5.97852C28.6216 6.12826 28.7518 6.24219 28.9211 6.32031C29.0969 6.39193 29.2954 6.39518 29.5168 6.33008C29.7382 6.25846 29.9725 6.10872 30.2199 5.88086C30.4738 5.65299 30.7277 5.31445 30.9816 4.86523C30.9816 4.75456 30.9816 4.63411 30.9816 4.50391C30.9882 4.3737 30.9784 4.25651 30.9523 4.15234C30.9263 4.04167 30.8775 3.95052 30.8059 3.87891C30.7342 3.80729 30.6268 3.77148 30.4836 3.77148ZM39.7786 7.56055C39.8828 7.48893 40.0065 7.39779 40.1497 7.28711C40.2994 7.16992 40.4492 7.04622 40.5989 6.91602C40.7486 6.78581 40.8886 6.64909 41.0188 6.50586C41.149 6.36263 41.2499 6.22591 41.3216 6.0957C41.3997 5.95898 41.4388 5.83203 41.4388 5.71484C41.4388 5.59766 41.3802 5.5 41.263 5.42188C41.0546 5.42188 40.8268 5.43164 40.5794 5.45117C40.332 5.46419 40.0846 5.4707 39.8372 5.4707C39.5898 5.46419 39.3489 5.44141 39.1145 5.40234C38.8867 5.36328 38.6816 5.29167 38.4993 5.1875C38.317 5.08333 38.1705 4.93685 38.0598 4.74805C37.9557 4.55273 37.9036 4.30534 37.9036 4.00586C37.9036 3.6543 37.9687 3.33854 38.0989 3.05859C38.2356 2.77214 38.4147 2.52148 38.636 2.30664C38.8574 2.08529 39.1048 1.89323 39.3782 1.73047C39.6582 1.5612 39.9381 1.41797 40.218 1.30078C40.3873 1.34635 40.5436 1.42773 40.6868 1.54492C40.83 1.66211 40.9537 1.79232 41.0579 1.93555C41.0123 2.07878 40.9212 2.18945 40.7845 2.26758C40.6542 2.3457 40.5013 2.41406 40.3255 2.47266C40.1562 2.53125 39.9772 2.5931 39.7884 2.6582C39.5996 2.72331 39.427 2.8112 39.2708 2.92188C39.121 3.02604 38.9941 3.16602 38.8899 3.3418C38.7858 3.51107 38.7337 3.73568 38.7337 4.01562C38.7337 4.22396 38.7858 4.37695 38.8899 4.47461C38.9941 4.57227 39.1308 4.64062 39.3001 4.67969C39.4694 4.71224 39.6614 4.72526 39.8763 4.71875C40.0911 4.70573 40.3092 4.68945 40.5305 4.66992C40.7584 4.65039 40.9798 4.64062 41.1946 4.64062C41.4095 4.63411 41.6015 4.66016 41.7708 4.71875C41.9401 4.77083 42.0735 4.85872 42.1712 4.98242C42.2753 5.10612 42.3274 5.28841 42.3274 5.5293C42.3274 5.63346 42.2916 5.76693 42.22 5.92969C42.1549 6.09245 42.0638 6.26823 41.9466 6.45703C41.8359 6.63932 41.7024 6.82161 41.5462 7.00391C41.3964 7.1862 41.2369 7.35221 41.0677 7.50195C40.9049 7.64518 40.7389 7.76562 40.5696 7.86328C40.4069 7.95443 40.2539 8 40.1106 8C39.9739 8 39.8828 7.95117 39.8372 7.85352C39.7981 7.75586 39.7786 7.6582 39.7786 7.56055ZM42.678 6.01758C42.678 5.61393 42.7724 5.23958 42.9613 4.89453C43.1501 4.54297 43.3974 4.24349 43.7034 3.99609C44.0159 3.74219 44.3642 3.54362 44.7484 3.40039C45.139 3.25716 45.5329 3.18555 45.93 3.18555C46.1514 3.18555 46.3467 3.25716 46.5159 3.40039C46.6917 3.54362 46.8382 3.7194 46.9554 3.92773C47.0726 4.12956 47.1605 4.3444 47.2191 4.57227C47.2842 4.80013 47.3167 4.9987 47.3167 5.16797C47.3167 5.53255 47.2288 5.88737 47.053 6.23242C46.8773 6.57096 46.6494 6.8737 46.3695 7.14062C46.0895 7.40104 45.7738 7.61263 45.4222 7.77539C45.0706 7.93815 44.7191 8.01953 44.3675 8.01953C44.055 8.01953 43.7913 7.96745 43.5765 7.86328C43.3616 7.7526 43.1891 7.60938 43.0589 7.43359C42.9287 7.2513 42.831 7.03971 42.7659 6.79883C42.7073 6.55143 42.678 6.29102 42.678 6.01758ZM43.5081 6.11523C43.5081 6.28451 43.5211 6.43424 43.5472 6.56445C43.5797 6.68815 43.6318 6.79557 43.7034 6.88672C43.7816 6.97786 43.8825 7.04948 44.0062 7.10156C44.1299 7.14714 44.2829 7.16992 44.4652 7.16992C44.706 7.16992 44.9469 7.10482 45.1878 6.97461C45.4287 6.83789 45.6435 6.66862 45.8323 6.4668C46.0277 6.25846 46.1839 6.0306 46.3011 5.7832C46.4183 5.53581 46.4769 5.29492 46.4769 5.06055C46.4769 4.95638 46.4671 4.84245 46.4476 4.71875C46.428 4.59505 46.3955 4.48112 46.3499 4.37695C46.3043 4.27279 46.2392 4.1849 46.1546 4.11328C46.07 4.04167 45.9626 4.00586 45.8323 4.00586C45.7152 4.00586 45.5752 4.04492 45.4124 4.12305C45.2562 4.20117 45.0902 4.30208 44.9144 4.42578C44.7451 4.54948 44.5758 4.68945 44.4066 4.8457C44.2438 5.00195 44.0941 5.1582 43.9573 5.31445C43.8206 5.4707 43.7099 5.62044 43.6253 5.76367C43.5472 5.9069 43.5081 6.02409 43.5081 6.11523ZM47.6576 6.01758C47.6576 5.61393 47.752 5.23958 47.9408 4.89453C48.1296 4.54297 48.377 4.24349 48.683 3.99609C48.9955 3.74219 49.3438 3.54362 49.7279 3.40039C50.1185 3.25716 50.5124 3.18555 50.9095 3.18555C51.1309 3.18555 51.3262 3.25716 51.4955 3.40039C51.6712 3.54362 51.8177 3.7194 51.9349 3.92773C52.0521 4.12956 52.14 4.3444 52.1986 4.57227C52.2637 4.80013 52.2962 4.9987 52.2962 5.16797C52.2962 5.53255 52.2084 5.88737 52.0326 6.23242C51.8568 6.57096 51.6289 6.8737 51.349 7.14062C51.069 7.40104 50.7533 7.61263 50.4017 7.77539C50.0502 7.93815 49.6986 8.01953 49.347 8.01953C49.0345 8.01953 48.7709 7.96745 48.556 7.86328C48.3412 7.7526 48.1686 7.60938 48.0384 7.43359C47.9082 7.2513 47.8106 7.03971 47.7455 6.79883C47.6869 6.55143 47.6576 6.29102 47.6576 6.01758ZM48.4877 6.11523C48.4877 6.28451 48.5007 6.43424 48.5267 6.56445C48.5593 6.68815 48.6114 6.79557 48.683 6.88672C48.7611 6.97786 48.862 7.04948 48.9857 7.10156C49.1094 7.14714 49.2624 7.16992 49.4447 7.16992C49.6856 7.16992 49.9265 7.10482 50.1673 6.97461C50.4082 6.83789 50.6231 6.66862 50.8119 6.4668C51.0072 6.25846 51.1634 6.0306 51.2806 5.7832C51.3978 5.53581 51.4564 5.29492 51.4564 5.06055C51.4564 4.95638 51.4466 4.84245 51.4271 4.71875C51.4076 4.59505 51.375 4.48112 51.3295 4.37695C51.2839 4.27279 51.2188 4.1849 51.1341 4.11328C51.0495 4.04167 50.9421 4.00586 50.8119 4.00586C50.6947 4.00586 50.5547 4.04492 50.392 4.12305C50.2357 4.20117 50.0697 4.30208 49.8939 4.42578C49.7246 4.54948 49.5554 4.68945 49.3861 4.8457C49.2233 5.00195 49.0736 5.1582 48.9369 5.31445C48.8002 5.4707 48.6895 5.62044 48.6048 5.76367C48.5267 5.9069 48.4877 6.02409 48.4877 6.11523ZM52.6371 4.70898C52.6371 4.53971 52.6794 4.41927 52.7641 4.34766C52.8487 4.26953 52.9854 4.23047 53.1742 4.23047H53.2719C53.2914 4.33464 53.3142 4.45508 53.3402 4.5918C53.3663 4.72852 53.4053 4.86849 53.4574 5.01172C53.5095 5.15495 53.5714 5.28841 53.643 5.41211C53.7146 5.5293 53.8025 5.6237 53.9066 5.69531C53.9131 5.46745 53.9685 5.24935 54.0727 5.04102C54.1833 4.82617 54.3168 4.63737 54.473 4.47461C54.6358 4.30534 54.8116 4.16536 55.0004 4.05469C55.1957 3.9375 55.3878 3.85938 55.5766 3.82031H55.7914C56.1039 3.82031 56.3708 3.89193 56.5922 4.03516C56.8135 4.17188 56.9958 4.35417 57.1391 4.58203C57.2888 4.80339 57.4027 5.05729 57.4809 5.34375C57.559 5.63021 57.6176 5.92318 57.6566 6.22266C57.7022 6.51562 57.7283 6.80208 57.7348 7.08203C57.7478 7.35547 57.7543 7.58984 57.7543 7.78516H57.0414C57.0023 7.39453 56.9535 7.02018 56.8949 6.66211C56.8754 6.51888 56.8493 6.36914 56.8168 6.21289C56.7842 6.05013 56.7484 5.90039 56.7094 5.76367C56.6703 5.62044 56.628 5.49023 56.5824 5.37305C56.5368 5.24935 56.4848 5.14518 56.4262 5.06055C56.4001 5.03451 56.3643 4.9987 56.3187 4.95312C56.2797 4.90755 56.2374 4.86198 56.1918 4.81641C56.1462 4.77083 56.1039 4.73177 56.0648 4.69922C56.0258 4.66667 56.003 4.65039 55.9965 4.65039C55.8012 4.59831 55.6319 4.63737 55.4887 4.76758C55.3454 4.89128 55.2185 5.06055 55.1078 5.27539C54.9971 5.49023 54.906 5.73438 54.8344 6.00781C54.7693 6.28125 54.7139 6.54492 54.6684 6.79883C54.6228 7.04622 54.5902 7.26432 54.5707 7.45312C54.5512 7.63542 54.5381 7.74609 54.5316 7.78516C54.3689 7.90234 54.2159 7.93815 54.0727 7.89258C53.9294 7.84049 53.7927 7.73633 53.6625 7.58008C53.5388 7.42383 53.4249 7.22852 53.3207 6.99414C53.223 6.75977 53.1319 6.51237 53.0473 6.25195C52.9626 5.98503 52.8845 5.7181 52.8129 5.45117C52.7478 5.18424 52.6892 4.93685 52.6371 4.70898Z" fill="#2176FF"/>
</svg>
