<svg width="18" height="18" viewBox="0 0 18 18" fill="none" xmlns="http://www.w3.org/2000/svg">
<path d="M9.13777 9.24289L7.60777 5.26531C7.58481 5.20562 7.5443 5.15429 7.49159 5.11809C7.43887 5.08188 7.37642 5.0625 7.31246 5.0625C7.24851 5.0625 7.18605 5.08188 7.13334 5.11809C7.08062 5.15429 7.04011 5.20562 7.01715 5.26531L5.48715 9.24289C5.47126 9.28422 5.44687 9.32175 5.41556 9.35306C5.38425 9.38437 5.34672 9.40876 5.30539 9.42465L1.32781 10.9546C1.26812 10.9776 1.21679 11.0181 1.18059 11.0708C1.14438 11.1236 1.125 11.186 1.125 11.25C1.125 11.3139 1.14438 11.3764 1.18059 11.4291C1.21679 11.4818 1.26812 11.5223 1.32781 11.5453L5.30539 13.0753C5.34672 13.0912 5.38425 13.1156 5.41556 13.1469C5.44687 13.1782 5.47126 13.2157 5.48715 13.257L7.01715 17.2346C7.04011 17.2943 7.08062 17.3456 7.13334 17.3818C7.18605 17.418 7.24851 17.4374 7.31246 17.4374C7.37642 17.4374 7.43887 17.418 7.49159 17.3818C7.5443 17.3456 7.58481 17.2943 7.60777 17.2346L9.13777 13.257C9.15367 13.2157 9.17805 13.1782 9.20936 13.1469C9.24067 13.1156 9.2782 13.0912 9.31953 13.0753L13.2971 11.5453C13.3568 11.5223 13.4081 11.4818 13.4443 11.4291C13.4805 11.3764 13.4999 11.3139 13.4999 11.25C13.4999 11.186 13.4805 11.1236 13.4443 11.0708C13.4081 11.0181 13.3568 10.9776 13.2971 10.9546L9.31953 9.42465C9.2782 9.40876 9.24067 9.38437 9.20936 9.35306C9.17805 9.32175 9.15367 9.28422 9.13777 9.24289Z" stroke="black" stroke-width="1.125" stroke-linecap="round" stroke-linejoin="round"/>
<path d="M3.79688 2.39062L3.09375 0.5625L2.39062 2.39062L0.5625 3.09375L2.39062 3.79688L3.09375 5.625L3.79688 3.79688L5.625 3.09375L3.79688 2.39062Z" stroke="black" stroke-width="1.125" stroke-linecap="round" stroke-linejoin="round"/>
<path d="M15.0001 4.12488L14.0625 1.6875L13.1249 4.12488L10.6875 5.0625L13.1249 6.00012L14.0625 8.4375L15.0001 6.00012L17.4375 5.0625L15.0001 4.12488Z" stroke="black" stroke-width="1.125" stroke-linecap="round" stroke-linejoin="round"/>
</svg>
